<svg xmlns="http://www.w3.org/2000/svg" xmlns:xlink="http://www.w3.org/1999/xlink" id="Capa_1" x="0px" y="0px" viewBox="0 0 551 431.3" style="enable-background:new 0 0 551 431.3;" xml:space="preserve"><style type="text/css">	.st0{clip-path:url(#SVGID_2_);}	.st1{fill:#85603B;}	.st2{fill:#5E3E1A;}	.st3{fill:#FFFFFF;}	.st4{fill:#85603B;stroke:#6699D2;stroke-width:10;stroke-miterlimit:10;}</style><g>	<g>		<defs>			<polygon id="SVGID_1_" points="80.2,110.7 80.2,320.7 270.8,425.6 461.3,320.7 461.3,110.7 270.8,5.7    "></polygon>		</defs>		<use xlink:href="#SVGID_1_" style="overflow:visible;fill:#85603B;"></use>		<clipPath id="SVGID_2_">			<use xlink:href="#SVGID_1_" style="overflow:visible;"></use>		</clipPath>		<g id="pkTxKe_1_" class="st0">			<g>				<path class="st1" d="M197.5-7.3c5.8,0,11.6,0,17.3,0c0,0.8,0,1.6,0,2.4c0.4,13.5,0.7,27.1,1.1,40.6c0.2,4.7-0.6,9-3.3,13     c-3,4.5-5.8,9.1-8.4,13.9c-4.6,8.6-9.2,17.2-13.5,26c-2.3,4.7-4.1,9.7-6.1,14.6c-1.6,4-3.2,8.1-4.8,12.1c-0.7,1.8-1.4,3.7-2,5.5     c-0.7,2.3-1.3,4.7-2,7c-0.5,1.5-1.3,2.9-1.6,4.5c-1.7,9-3,18.2-5,27.2c-2.1,9.1-3.6,18.3-3.5,27.6c0.1,11,0.4,22,0.7,33.1     c0.1,3.2,0.5,6.5,1.2,9.6c2,8.3,4.1,16.5,6.3,24.7c1,3.6,2.3,7.2,3.8,10.7c1.9,4.6,3.7,9.2,6,13.7c2.6,5.2,5.7,10.1,8.6,15.1     c2.1,3.6,4.1,7.1,6.4,10.6c1.8,2.7,3.9,5.2,5.9,7.8c2.9,3.8,5.5,7.8,8.8,11.4c5.7,6.1,11.5,12.1,17.6,17.8     c6.1,5.8,12.4,11.2,18.8,16.7c4.5,3.8,9.2,7.4,13.8,11c2.3,1.7,4.7,3.3,7.2,4.8c0.4,0.3,1.3-0.1,2-0.2c-0.2-0.7-0.1-1.6-0.5-2.1     c-2.2-2.1-4.5-4-6.7-6.1c-6.3-6.1-12.7-12.1-18.8-18.4c-4-4.1-8-8.4-11.5-13c-4.8-6.2-9.3-12.6-13.7-19.1     c-3.4-5.1-6.3-10.5-9.3-15.8c-2-3.6-3.8-7.3-5.6-11c-2.1-4.3-4.1-8.5-5.9-12.9c-2-5-3.8-10-5.3-15.2c-2-6.9-3.7-14-5.5-21     c-0.1-0.5-0.1-1.1-0.1-1.6c-0.3-2.8-0.7-5.6-1.1-8.4c-0.7-5.5-1.7-11.1-1.9-16.6c-0.3-8.8-0.1-17.6,0.1-26.4     c0.1-3.5,0.8-7,1.4-10.5c0.5-3.3,1.1-6.7,1.7-10c0.4-2.3,0.6-4.7,1.1-7c0.8-3.8,1.8-7.5,2.7-11.2c0.3-1.5,0.5-3,1-4.4     c3.4-10,6.8-20,10.4-30c1.4-3.9,3-7.6,4.7-11.4c1.8-3.9,3.8-7.6,5.8-11.5c2.3-4.6,4.9-9.1,7-13.8c1.3-2.8,2.6-6,2.6-9     c-0.1-14-0.7-28-1.1-42c-0.3-10.9-0.4-21.9-0.5-32.8c6.9,0,13.9,0,20.8,0c0.1,4.4,0.4,8.8,0.4,13.2c0.1,19.4,0.2,38.8,0.2,58.1     c0,1.6-0.3,3.4-1,4.8c-3.5,7.3-7.2,14.5-10.8,21.7c-1.6,3.2-3.1,6.4-4.6,9.6c-1.9,3.8-3.9,7.6-5.6,11.5     c-1.9,4.5-3.3,9.2-5.1,13.8c-2.7,6.8-6,13.4-7.2,20.7c-0.1,0.7-0.5,1.3-0.7,2c-1,4-2,7.9-3,11.9c-0.5,1.7-1.2,3.4-1.6,5.1     c-0.6,3-1,6-1.2,9c0,0.7,1,1.4,1.5,2.1c0.6-0.7,1.6-1.3,1.8-2c0.5-2,0.6-4,1-6c0.2-1.2,0.7-2.4,1.2-3.6c0.9-2,2.1-3.9,2.8-5.9     c2.8-7.1,5.2-14.4,8.2-21.4c2.1-5,5-9.7,7.5-14.5c1.5-2.8,2.8-5.7,4.5-8.4c2.8-4.3,5.7-8.6,8.9-12.7c2.9-3.7,6.2-7.1,9.4-10.5     c2.5-2.8,6.2-4.5,7.8-8.1c0.4-0.9,2-1.7,3.2-1.9c2-0.3,4.1-0.2,6.1,0.1c9.9,1.4,19.5,3.7,28.9,6.9c5.2,1.8,10.3,4.1,15.3,6.5     c2,0.9,3.7,2.5,5.6,3.8c4.9,3.2,10.2,5.9,14.6,9.6c6.2,5.2,12.2,10.7,17.4,16.7c5.5,6.3,10,13.4,14.8,20.2     c1.3,1.9,2.4,3.9,3.4,5.9c1.7,3.6,3.3,7.2,4.9,10.9c0.1,0.1,0.1,0.3,0.3,0.4c2.8,1.8,3.3,4.7,4,7.5c0.2,0.7,1,1.2,1.6,1.9     c0.4-0.7,1.2-1.5,1-2.1c-0.6-2-1.9-3.8-2.2-5.8c-0.6-3.7-1.6-7-3.8-10.2c-2.2-3.3-3.4-7.4-5-11.1c-0.1-0.3-0.3-0.5-0.5-0.8     c-3.4-5.2-6.5-10.6-10.2-15.6c-4.3-5.9-8.5-11.8-13.5-17.1c-5.3-5.6-11.2-10.6-17.2-15.5c-5.2-4.2-10.7-8-16.3-11.9     c-2.2-1.5-4.8-2.5-7.1-3.7c-5-2.7-9.9-5.6-15.1-8c-3.9-1.8-8.2-3-12.3-4.3c-4.2-1.4-8.4-2.7-12.6-4c-0.9-0.3-1.8-0.4-2.7-0.5     c-5.5-0.6-8.2-3.3-8.4-8.6c-0.1-2.4,0.2-4.9,0.2-7.3c0-17.4-0.1-34.8-0.1-52.2c4.8,0,9.6,0,14.4,0c1,5.2,2.3,10.3,2.9,15.5     c0.6,5.2,3.4,9.3,6.5,13c7.6,9,16.1,17.2,25.7,24.4c6.2,4.6,12.2,9.4,18,14.4c10.1,8.6,20.1,17.2,30,26c4,3.6,7.6,7.6,11.5,11.4     c7.1,6.9,13.6,14.1,19.1,22.2c3.4,5,7.2,9.8,10,15.1c5,9.2,10.2,18.3,12.5,28.7c1.5,6.9,3.9,13.7,4.8,20.7     c2.5,19.1,2.6,38.1-2.1,57c-0.2,0.9-0.1,1.9-0.3,2.8c-0.3,2.2-0.6,4.4-1.1,6.5c-0.9,3.7-1.8,7.3-2.9,11c-1.2,4-2.5,8-3.9,11.9     c-1.5,4.4-3,8.8-4.6,13.2c-1,2.9-2.1,5.8-3.4,8.6c-1.9,4-4,7.9-6,11.9c-4.6,9-9,18.1-13.7,27.1c-2,3.8-4.3,7.4-6.5,11.1     c-2.6,4.4-4.9,9.1-8,13.2c-4.5,6-7.6,12.5-10.6,19.1c-1.5,3.2-3.1,6.4-4.5,9.7c-2.2,5.2-4.5,10.5-6.3,15.8     c-1.9,5.6-3.5,11.3-4.9,17c-1,3.9-2,7.8-2.3,11.7c-0.4,5.3-0.1,10.7-0.1,16c-2.8,0-5.6,0-8.4,0c-1-4.8-1.8-9.6-2.9-14.3     c-0.2-1-1.1-1.9-1.9-2.7c-1.4-1.3-2.8-0.9-3.3,0.8c-0.3,0.9-0.4,1.9-0.3,2.8c0.3,4.5,0.7,8.9,1.1,13.4c-4.5,0-8.9,0-13.4,0     c0.2-8.9,0.2-17.8,0.7-26.6c0.2-2.9-0.3-4.9-2.8-6.4c-2.7-1.6-5.6-3-8.2-4.7c-2.5-1.6-4.7-3.7-7.3-5.3     c-12.8-7.6-23.8-17.4-35.3-26.4c-8.5-6.7-16-14.6-23.9-21.9c-14.1-13-25.3-28.3-36.2-43.8c-1.7-2.4-2.9-5.1-4.4-7.6     c-3-4.9-6.4-9.7-9.2-14.8c-2.8-5.3-5.1-10.9-7.5-16.4c-1.4-3-2.9-6-3.9-9.1c-2.6-7.9-4.9-15.8-7.2-23.8     c-0.4-1.4-0.5-2.8-0.8-4.2c-0.6-3.4-1.2-6.8-1.8-10.2c-0.4-2.3-1.2-4.6-1.3-7c-0.4-14.6-0.7-29.1-0.8-43.7     c-0.1-12.4,2.9-24.5,5.7-36.6c0.6-2.8,1.4-5.5,2.2-8.2c1.6-5.6,2.9-11.3,4.8-16.8c1.8-5.2,4.3-10.2,6.4-15.3     c1.7-4,3-8.2,4.9-12.1c3-6.1,6.2-12.1,9.5-18.1c4.4-7.7,8.3-15.6,13.7-22.6c4.1-5.2,5-10.1,4.4-16.3     C198.8,17.4,198.3,5.1,197.5-7.3z M345.1,246.2c-0.2,0-0.4,0-0.6,0c0-2.3,0.2-4.6,0-6.8c-0.6-7.4-0.9-14.9-3.6-22.1     c-1.7-4.4-2.8-9-4.2-13.5c-1.6-5-2.9-10.2-4.8-15.1c-1.1-3.1-2.9-5.9-4.6-8.8c-1.8-3.1-3.8-6-5.7-9c-3.6-5.6-8.5-9.7-15.6-9     c-9,0.9-18,1.4-26.7,5.2c-10.6,4.7-18.2,11.8-23.6,21.5c-3.5,6.4-4.6,13.5-5.8,20.4c-1.2,7.1-0.8,14.5-0.2,21.6     c0.6,7,1.8,14.1,3.8,20.9c1.8,6.2,4.8,12.2,7.8,18.1c1.6,3.2,3.8,6.3,6.3,9c6.3,6.7,14.7,10.1,23.5,12.6c1.5,0.4,3,0.8,4.5,1.3     c8.5,2.7,17.2,3.2,25.8,1c6.3-1.6,11.3-5.1,14.4-10.7c0.5-0.8,1-1.7,1.6-2.4c3.3-3.5,4.8-8.1,5.6-12.3     C344.4,260.9,344.5,253.5,345.1,246.2z M357.7,165.1c0.2-0.2,0.4-0.3,0.6-0.5c-0.4-1-0.6-2-1.3-2.8c-4.3-5.3-8.5-10.8-13.1-15.9     c-3.5-3.8-7.5-7.2-11.6-10.5c-4.7-3.8-9.7-7.3-14.6-10.8c-1-0.7-2.2-1.3-2.9-2.1c-3.9-4.2-9.1-6.6-13.9-9.6     c-5.4-3.4-10.9-6.5-16.4-9.7c-2.7-1.6-5.4-1.7-7.9,0c-1.8,1.3-3.6,2.5-5.2,4c-10.1,9.2-18.9,19.5-26.5,30.6     c-4.4,6.4-7.9,13.4-11.7,20.1c-1.5,2.7-2.6,5.6-3.8,8.4c-2.3,5.1-5,10.1-6.6,15.4c-2.1,7.2-3.6,14.6-4.6,21.9     c-1,7.5-1.9,15.3-1.4,22.8c0.6,9.8,1.9,19.6,5.2,29c2.6,7.6,6.5,14.6,10.7,21.4c2.6,4.3,6.1,8.1,9.3,12.1c0.8,0.9,2,1.5,3.1,2.2     c-0.2-1.3-0.3-2.6-0.5-3.9c0-0.3-0.4-0.5-0.5-0.8c-1.5-2.7-3.4-5.2-4.6-8.1c-2.1-5-3.7-10.2-5.6-15.3c-3.6-9.7-4.7-19.8-4.9-30     c-0.2-10.1,0.3-20.1,1-30.2c0.3-5.2,1-10.4,2.4-15.4c2.9-10.2,6-20.4,9.9-30.4c4.6-11.6,11-22.4,21.3-30.4     c6.4-4.9,13.4-7.3,21.6-4.1c6.1,2.4,12.7,2.8,18.6,5.7c3.4,1.7,7.2,2.6,10.7,4.3c4.3,2.1,8.3,4.6,12.5,6.8     c7.1,3.8,12.6,9.4,18.7,14.2c0.2,0.1,0.3,0.4,0.5,0.6c3.2,3.4,6.4,6.7,9.6,10C356.1,164.8,357,164.9,357.7,165.1z M377.2,299.1     c-0.5-0.6-1-1.2-1.5-1.8c-0.7,0.6-2.1,1.3-2.1,1.9c0,2.6-1.1,4.3-3.4,5.5c-0.2,0.1-0.4,0.4-0.5,0.5c-0.1,3.4-2.1,5.8-4.5,8.1     c-0.8,0.8-0.9,2.2-1.5,3.2c-2.2,3.6-4.4,7.1-6.7,10.6c-0.3,0.5-0.6,0.9-1,1.3c-4.6,5.6-9.2,11.1-13.7,16.7     c-5.8,7.1-12.7,12.9-20.2,18.3c-4.2,3-8.1,3.6-12.8,1.7c-2.2-0.9-4.6-1-7-1.6c-0.9-0.2-1.8-0.4-2.6-0.8     c-5.7-3.3-11.7-6.4-17.1-10.1c-6-4.2-11.7-8.8-17.3-13.5c-3.5-3-6.6-6.4-9.7-9.8c-5.9-6.6-11.5-13.5-17.4-20.1     c-0.8-0.9-2.1-1.5-3.1-2.2c0,1.3,0,2.6,0.1,3.9c0.1,0.6,0.6,1.1,1,1.6c1.6,2.1,3.4,4,4.9,6.2c2.7,3.8,5.2,7.8,7.9,11.7     c2.3,3.2,4.6,6.5,7.2,9.5c2.9,3.3,6.1,6.4,9.4,9.3c10.2,9,20.2,18,31.9,25.3c4.4,2.7,8.8,5.5,13.4,8c3.7,2,5.8,4.6,5.7,8.6     c0,0.8,0,1.6,0.2,2.3c0.5,1.3,1.3,2.5,2,3.8c0.9-1.1,1.9-2.2,2.5-3.4c2-4.1,3.7-8.4,5.7-12.5c1.4-2.8,3.2-5.5,4.8-8.2     c3.1-5.1,6.1-10.4,9.4-15.4c4.6-7,9.6-13.7,14.4-20.6c2.1-3.1,4-6.2,6-9.4c1.4-2.2,2.9-4.4,3.9-6.8c0.7-1.8,1.9-3.2,2.7-4.8     c1.6-3,3.4-6,4.9-9.1c0.9-1.7,0.6-3.9,2.6-5.3C376.6,301.3,376.7,300.2,377.2,299.1z M340.9,316.1c-0.2-0.2-0.4-0.4-0.5-0.6     c-1.2,0.6-2.4,1.1-3.5,1.8c-3.9,2.5-7.8,4.6-12.3,6.2c-6.6,2.4-13.2,2.1-19.7,1.1c-9.2-1.3-18.2-3.5-26.4-8.1     c-0.7-0.4-1.6-0.5-2.4-0.4c-0.7,0-1.6,0.4-1.8,0.8c-0.2,0.5,0.2,1.4,0.7,1.8c2.1,1.7,4.2,3.6,6.5,4.9c4,2.3,8.2,4.4,12.3,6.6     c6.4,3.5,12.7,7,19.1,10.5c5.3,2.9,7.6,2.4,11.3-2.2c2.1-2.6,4.1-5.4,6.7-7.6c4.4-3.7,6.8-8.6,9.8-13.2     C340.8,317.2,340.7,316.6,340.9,316.1z M381.8,182.7c0.4,0,0.8,0,1.2-0.1c1.1-1.8,1.6-3.8,0.5-5.8c-0.3-0.5-1-1-1.5-0.9     c-0.4,0-1.1,0.9-1,1.3C381.1,179,381.5,180.9,381.8,182.7z M233.3,305.4c0.3-0.2,0.7-0.3,1-0.5c-0.6-0.9-1.1-1.8-1.7-2.7     c0,0-1,0.3-1.1,0.5C231.1,304.3,232,305,233.3,305.4z"></path>				<path class="st1" d="M423.8,447.5c-6.8,0-13.5,0-20.3,0c-0.3-0.9-0.4-1.9-0.8-2.7c-1.7-3.4-1.5-6.7-0.1-10.1     c0.3-0.8,0.6-1.6,0.7-2.5c1.1-6.3,3.7-11.9,7-17.4c5.1-8.7,11.7-16.3,18.3-23.9c1.1-1.3,2.3-2.5,3.6-3.6     c5.5-4.8,11.1-9.3,16.4-14.3c5.9-5.6,12.1-10.9,16.2-18.3c2.6-4.7,5.1-9.4,6.2-14.5c3.1-15.6,3-31.3,2.5-47.1     c-0.4-14.2-1.4-28.5-2.2-42.7c-0.2-3.1-0.5-6.1-0.9-9.2c-0.1-0.9-0.7-1.7-1.1-2.5c-0.3,0-0.5,0.1-0.8,0.1     c-0.3,0.8-0.7,1.5-0.9,2.3c-0.5,3.2-1.3,6.4-1.3,9.6c0.2,10.3-2.6,20.1-4.2,30.1c-0.1,0.9-0.7,1.8-1,2.7     c-1.1,3.2-2.5,6.3-3.3,9.6c-1.5,6-2.4,12.2-4.1,18.2c-1.9,6.9-4.1,13.7-6.3,20.5c-1.3,4.1-2.5,8.2-4.3,12.1     c-3,6.7-6.3,13.3-9.7,19.8c-4.3,8.4-9.1,16.6-15.7,23.6c-3,3.2-5.7,6.7-8.8,9.8c-2.4,2.4-5.2,4.6-8,6.6     c-4.7,3.4-7.5,7.3-8.4,13.2c-1.6,10.3-1.5,20.4,0.4,30.5c-5.4,0-10.9,0-16.3,0c-0.7-3.4-1.8-6.7-1.9-10.1     c-0.4-11.1,3.9-21.3,7.2-31.6c0.1-0.3,0.3-0.6,0.5-0.8c2.4-4.3,4.7-8.6,7.3-12.7c5.1-8,10.4-15.9,15.8-23.6     c2.2-3.1,5.5-5.5,7.6-8.7c4.7-7,9.1-14.2,13.5-21.4c1.7-2.8,3.1-5.9,4.5-8.9c3.1-6.7,6.3-13.3,9-20.1c2.5-6.4,4.7-12.9,6.7-19.5     c1.9-6.3,3.6-12.8,4.7-19.3c1.4-8.8,2.3-17.7,2.8-26.5c0.5-9.3,0.9-18.7,0.4-28c-0.6-10.7-1.6-21.4-3.5-31.9     c-1.5-8.1-1.9-16.4-5.8-24c-0.2-0.4-0.2-0.9-0.4-1.4c-1.8-6.3-3.4-12.8-5.6-19c-2.8-7.9-6-15.8-9.5-23.5     c-4-8.8-8.3-17.5-12.8-26c-3.7-7.1-7.9-14-12.1-20.8c-4.4-7.1-9-14.2-13.8-21.1c-4-5.8-8.3-11.5-12.8-17.1     c-7.1-8.8-14.5-17.5-21.8-26.3C353.4,1,350-3.2,346.6-7.3c8.6,0,17.2,0,25.8,0c1.4,1.6,2.9,3.2,4.2,4.9     c3.9,5.1,7.7,10.2,11.5,15.3c1.3,1.7,2.7,3.2,3.9,4.9c4,5.9,7.9,11.9,11.9,17.9c3.4,5,7,9.9,10.1,15.1     c4.3,7.1,8.3,14.3,12.4,21.5c1.4,2.5,2.5,5.1,3.8,7.6c2,3.8,4.3,7.5,6.3,11.4c1.9,3.8,3.4,7.7,5.1,11.5c1.8,4,3.7,7.9,5.4,11.9     c1.5,3.3,3,6.6,4.2,10c1.8,5,3.2,10,4.9,15.1c0.2,0.6,0.7,1.1,0.9,1.7c0.6,1.7,1.2,3.4,1.7,5.1c0.6,2.2,1,4.4,1.7,6.6     c0.2,0.5,1.1,0.9,1.7,1c0.3,0,1-0.9,1-1.4c-0.1-3.1,0.2-6.3-0.6-9.3c-1.6-6.3-3.7-12.5-5.5-18.8c-1.8-6.4-3.2-12.9-5.4-19.1     c-3.9-11.2-8.3-22.2-12.6-33.2c-0.9-2.3-1.6-4.6-2.7-6.9c-2.1-4.3-4.3-8.6-6.4-12.9c-2.9-5.9-5.7-11.9-8.5-17.8     c-1.6-3.2-3.1-6.4-4.9-9.5c-5.3-8.9-10.8-17.8-16.3-26.7c-1.2-2-2.7-3.9-4.1-5.9c8.1,0,16.2,0,24.3,0c4.8,8,9.7,16,14.5,24.1     c1.8,3.1,3.7,6.1,5.4,9.3c2,3.8,3.8,7.8,5.8,11.7c1.7,3.2,3.6,6.4,5.2,9.6c1.1,2.2,1.8,4.5,2.8,6.7c1.3,2.7,2.9,5.3,4,8.1     c2.9,6.9,5.6,13.9,8.3,20.9c1.6,4.1,2.7,8.3,4.7,12.2c1.8,3.5,3,7.1,3.6,10.9c0.1,0.7,0.4,1.4,0.6,2c2.3,6.9,4.6,13.8,6.9,20.6     c0.3,0.8,0.7,1.6,1,2.4c0,74.8,0,149.7,0,224.5c-4.4,4.5-8.8,8.9-13.2,13.4c-2.3,2.3-4.6,4.5-6.7,6.9c-4.5,5.3-9,10.6-13.3,16.1     c-4.7,6-9.5,12.1-13.7,18.4c-3.7,5.5-6.6,11.3-8.9,17.5C425,434.5,424.1,440.9,423.8,447.5z M464.1,169.5c0.3,0,0.6,0,1,0     c1.4-1.4,1.7-7.8,0.3-9.2c-0.2-0.2-0.8-0.5-1-0.4c-0.3,0.1-0.7,0.6-0.7,0.9C463.7,163.7,463.9,166.6,464.1,169.5z"></path>				<path class="st1" d="M250,447.5c-7.8,0-15.5,0-23.3,0c-1-1.4-2-2.9-3.1-4.3c-0.7-0.9-1.7-1.8-2.7-2.3c-3.2-1.4-6.6-2.4-9.8-3.8     c-7.3-3.3-14.6-6.7-21.8-10.3c-5-2.5-10-5.2-14.9-7.9c-2.1-1.1-3.9-2.6-5.8-3.9c-3-2-6.1-3.7-8.9-5.9     c-5.4-4.2-10.8-8.5-15.9-13.2c-5.9-5.5-12-10.9-17.1-17.1c-6.5-7.7-12.9-15.5-17.7-24.4c-1.7-3.1-3.7-5.9-5.2-9.1     c-1.7-3.5-3-7.1-4.5-10.6c-0.2-0.4-0.4-0.7-0.6-1c-1.9-4.1-4.4-8.1-5.6-12.5c-1.8-6.4-5-12.5-5.6-19.2c0-0.5-0.3-0.9-0.4-1.4     c-0.7-3-1.4-6-2.1-9c-0.8-3.5-1.7-7.1-2.4-10.6c-0.5-2.5-0.7-5-1-7.5c-0.2-1.8-0.1-3.6-0.2-5.4c-0.5-7.6-1.4-15.2-1.5-22.9     c-0.2-18.8,0.8-37.6,4.5-56.2c0.8-3.9,0.3-8.2,1.7-11.9c1.7-4.7,2.6-9.4,2.9-14.3c0.1-1.4,0.4-2.8,0.8-4.2     c1.9-6.8,3.8-13.6,5.8-20.4c1.6-5.6,3.3-11.2,5.2-16.7c3.3-9.5,6.7-18.9,10.5-28.3c2.5-6.4,5.8-12.5,8.6-18.8     c2.3-5.3,4.3-10.7,6.4-16c0.6-1.6,1.3-3.2,1.9-4.8c0.5-1.3,1.2-2.6,1.7-3.9c1.6-4.9,4.2-9.6,4.5-14.8c0-0.2,0.2-0.4,0.3-0.7     c0.9-3.2,1.8-6.3,2.6-9.5c0.4-1.8,0.6-3.6,0.9-5.4c1.9-8.9,3.8-17.9,5.6-26.8c6.4,0,12.9,0,19.3,0c-0.6,4.3-1.2,8.5-1.8,12.8     c-1.2,8.7-4.4,16.8-8.1,24.7c-4.6,9.8-9.5,19.5-14.1,29.3c-3.4,7.5-6.9,15-9.6,22.7c-3,8.5-7.3,16.7-8.7,25.7     c-0.1,0.5-0.3,1.1-0.5,1.6c-2.1,6.2-4.2,12.4-6.2,18.6c-0.4,1.3-0.4,2.6-0.6,4c-0.3,1.9-0.5,3.9-1.1,5.8     c-1.8,6.8-4,13.4-5.5,20.2c-1.5,6.4-2.6,12.8-3.4,19.3c-0.9,7.9-1.4,15.8-1.9,23.8c-1.4,23.8-1.5,47.5,3.7,71     c0.9,3.9,1.7,7.8,2.7,11.7c0.5,2,1.3,3.9,1.9,5.8c0.4,1.2,0.4,2.5,0.8,3.7c2.2,5.9,4.1,11.9,6.8,17.6c4.2,9,8.4,18,13.6,26.4     c4.6,7.6,10.7,14.3,15.8,21.7c5.8,8.3,12.8,15.4,20.5,21.9c7.7,6.5,15.3,13.1,24,18.5c2.6,1.6,4.9,3.7,7.6,5.2     c7.5,4.1,15,8.2,22.7,12c5,2.5,10.3,4.5,15.5,6.5c2.1,0.8,3.4,1.8,4.5,3.7C245.5,433.5,247.6,440.5,250,447.5z"></path>				<path class="st1" d="M282.2,447.5c-7.1,0-14.2,0-21.3,0c-2.2-6.4-4.6-12.6-6.3-19.1c-0.9-3.6-2-6.4-6.2-7.2     c-0.4-0.1-0.7-0.4-1.1-0.6c-5.8-3.5-11.6-6.8-17.3-10.4c-5.8-3.6-11.5-7.3-17-11.2c-4.9-3.4-9.7-6.8-14.2-10.6     c-8.7-7.3-17.4-14.7-25.8-22.3c-14.5-13-26.4-28.1-36.8-44.2c-1.7-2.6-3.2-5.3-4.6-8.1c-3-5.8-6.2-11.5-8.8-17.4     c-1.8-4.2-4.5-8.2-4.7-13.1c0-0.7-0.8-1.4-1.1-2.1c-0.7-1.5-1.5-3-1.8-4.6c-1.3-6.3-2.8-12.6-3.6-19c-1.3-10-2.7-20-2.9-30.1     c-0.2-15.6,2.2-31.1,5.3-46.4c0.8-3.8,1.4-7.6,2.4-11.3c1.6-5.7,3.6-11.4,5.4-17.1c0.1-0.3,0.1-0.6,0.2-0.9     c2.5-10,5.4-19.9,10.2-29.2c1.9-3.7,3.4-7.7,4.9-11.5c1.8-4.6,3.4-9.3,5.2-14c2.2-5.5,4.5-10.9,6.8-16.4     c0.3-0.7,0.6-1.5,0.9-2.2c2.1-4.6,4.2-9.2,6.2-13.8c1.7-3.8,3.3-7.7,4.9-11.6c2-4.9,4-9.9,6-14.8c0.2-0.5,0.2-1.1,0.4-1.6     c0.4-1.5,0.8-3,1.2-4.6c2-7.5,4.2-15,5.9-22.6c1.2-5.5,1.7-11.2,2.5-16.8c4.3,0,8.6,0,12.9,0c-0.8,6.3-1.7,12.6-2.4,18.9     c-0.4,3.1-0.5,6.2-0.7,9.3c-0.2,3.4,0.2,7.1-0.9,10.2c-1.5,4.5-4.2,8.5-6.1,12.9c-2.2,5-4.3,10-6.3,15.1c-1.6,4-2.8,8-4.5,12     c-1.8,4.2-4,8.3-5.7,12.5c-2.8,6.9-5.2,13.9-7.9,20.8c-1.3,3.5-3,7-4.1,10.6c-2.1,6.5-4,13.1-5.8,19.7     c-1.6,5.7-3.8,11.4-4.4,17.2c-1.3,12.1-4.6,23.9-5.1,36.2c-0.6,13.9-1.2,27.7,0,41.5c0.4,5.2,0.6,10.6,1.6,15.7     c1.6,8.4,3.5,16.7,5.6,24.9c1.7,6.3,4,12.5,6,18.7c0.9,2.8,1.6,5.8,3,8.5c4.5,8.5,9.1,17.1,14,25.4c3,5.1,6.4,10.2,10.1,14.8     c5.1,6.2,10.6,12.3,16.3,18c6.3,6.4,12.8,12.8,19.7,18.6c6.3,5.2,13.3,9.8,20.1,14.4c4.3,2.9,8.7,5.7,13.3,8.1     c8.9,4.6,18,8.8,27,13.2c2.9,1.4,4.4,3.5,4.3,6.8C276.8,427.2,277.7,437.6,282.2,447.5z"></path>				<path class="st1" d="M365.4,447.5c-8.9,0-17.8,0-26.7,0c-0.2-1.2-0.5-2.5-0.7-3.7c-1.5-9.7,1.4-18.9,3.6-28.2     c1.3-5.4,3.4-10.7,5.5-15.8c2.7-6.5,5.7-12.8,8.6-19.2c0.2-0.3,0.5-0.6,0.7-0.9c6.5-6.7,13.4-13.3,18.6-21.1     c5.6-8.2,11.7-16,16.6-24.5c4.8-8.4,10.2-16.5,13.5-25.7c1.5-4.3,4-8.3,5.5-12.6c2.6-8,5.1-16.1,7.1-24.3     c1.5-6.3,2.1-12.9,3.2-19.3c2.2-13.2,1.8-26.5,1.5-39.8c0-1-0.2-2-0.4-3c-1-6.4-2-12.7-3.1-19.1c-0.7-4-1.3-8.1-2.1-12.1     c-0.5-2.7-1.4-5.3-2.1-8c-0.4-1.5-0.6-3.1-1.1-4.6c-2.9-7.7-6.1-15.3-8.8-23c-2.5-7.3-6.1-14-9.8-20.8c-1.4-2.6-2.3-5.4-3.8-7.9     c-3.3-5.7-6.9-11.3-10.3-16.9c-1.6-2.6-2.9-5.3-4.7-7.8c-3.2-4.5-6.6-8.8-9.9-13.2c-3-3.9-5.9-8-9.1-11.7     c-7.1-8.2-14.3-16.3-21.6-24.3c-5.3-5.8-10.6-11.5-16.2-16.9c-7.6-7.4-15.5-14.3-23.1-21.7c-2.7-2.6-4.7-5.8-7-8.8     c7.1,0,14.2,0,21.3,0c3.3,3,6.8,5.5,10.7,7.9c5.5,3.4,10.5,7.6,15.4,11.7c6.5,5.5,12.8,11.3,19.2,17     c11.8,10.7,21.8,22.8,31.4,35.2c6.3,8.2,11.6,17.2,17.3,25.8c1.7,2.5,3.2,5.1,4.6,7.8c3.3,6.5,7.6,12.6,8.9,19.8     c0.2,0.8,0.5,1.7,0.9,2.4c4.9,9.6,8.5,19.7,10.7,30.2c0.8,3.8,2.1,7.4,2.9,11.2c1.1,5.1,2.2,10.2,2.7,15.3     c1.2,11.6,2.5,23.2,2.9,34.8c0.3,8.5-0.5,17-1.4,25.4c-1.1,10.3-2.6,20.6-4.6,30.8c-1.7,8.4-4.1,16.7-6.5,24.9     c-1.9,6.4-4.5,12.6-6.8,18.8c-0.2,0.6-0.6,1.2-0.6,1.8c-0.2,5.1-3.2,9.4-5,14c-3,7.2-6.3,14.3-9.7,21.4     c-3.2,6.7-6.6,13.3-10,19.9c-3.1,5.9-6.6,11.7-9.9,17.6c-0.2,0.4-0.5,0.8-0.8,1.2c-3.3,4.9-6.7,9.7-9.7,14.7     c-3.3,5.3-6.5,10.8-9.4,16.3c-2.4,4.6-4.5,9.4-2.9,14.7c0.8,2.7,2.2,5.3,3.2,7.9C364.3,443.5,364.8,445.5,365.4,447.5z"></path>				<path class="st2" d="M289.1-7.3c2.3,2.9,4.3,6.2,7,8.8c7.6,7.4,15.5,14.4,23.1,21.7c5.6,5.4,10.9,11.1,16.2,16.9     c7.3,8,14.5,16.1,21.6,24.3c3.2,3.7,6.1,7.8,9.1,11.7c3.3,4.4,6.8,8.7,9.9,13.2c1.8,2.5,3.1,5.2,4.7,7.8     c3.4,5.6,7,11.2,10.3,16.9c1.5,2.5,2.4,5.3,3.8,7.9c3.7,6.7,7.3,13.5,9.8,20.8c2.7,7.7,5.9,15.3,8.8,23c0.6,1.5,0.7,3.1,1.1,4.6     c0.7,2.7,1.6,5.3,2.1,8c0.8,4,1.4,8.1,2.1,12.1c1,6.4,2.1,12.7,3.1,19.1c0.2,1,0.4,2,0.4,3c0.3,13.3,0.7,26.6-1.5,39.8     c-1.1,6.4-1.7,13-3.2,19.3c-2,8.2-4.4,16.3-7.1,24.3c-1.4,4.3-3.9,8.3-5.5,12.6c-3.2,9.2-8.7,17.3-13.5,25.7     c-4.9,8.5-11,16.4-16.6,24.5c-5.3,7.8-12.1,14.3-18.6,21.1c-0.3,0.3-0.6,0.6-0.7,0.9c-2.9,6.4-6,12.7-8.6,19.2     c-2.1,5.2-4.2,10.4-5.5,15.8c-2.2,9.2-5,18.5-3.6,28.2c0.2,1.2,0.5,2.5,0.7,3.7c-3.6,0-7.3,0-10.9,0c0-5.3-0.3-10.7,0.1-16     c0.3-4,1.3-7.9,2.3-11.7c1.5-5.7,3-11.4,4.9-17c1.8-5.4,4.1-10.6,6.3-15.8c1.4-3.3,3-6.5,4.5-9.7c3-6.6,6.1-13.2,10.6-19.1     c3.1-4.1,5.4-8.7,8-13.2c2.2-3.7,4.6-7.3,6.5-11.1c4.7-9,9.1-18,13.7-27.1c2-4,4.1-7.9,6-11.9c1.3-2.8,2.4-5.7,3.4-8.6     c1.6-4.4,3.1-8.8,4.6-13.2c1.3-4,2.7-7.9,3.9-11.9c1.1-3.6,2-7.3,2.9-11c0.5-2.1,0.8-4.3,1.1-6.5c0.1-0.9,0.1-1.9,0.3-2.8     c4.7-18.9,4.6-37.9,2.1-57c-0.9-7-3.3-13.7-4.8-20.7c-2.2-10.3-7.5-19.5-12.5-28.7c-2.9-5.3-6.6-10.1-10-15.1     c-5.6-8-12.1-15.3-19.1-22.2c-3.9-3.8-7.4-7.8-11.5-11.4c-9.9-8.8-19.9-17.4-30-26c-5.8-4.9-11.8-9.8-18-14.4     c-9.6-7.2-18.1-15.4-25.7-24.4c-3.2-3.7-5.9-7.8-6.5-13c-0.6-5.2-1.9-10.3-2.9-15.5C274.9-7.3,282-7.3,289.1-7.3z"></path>				<path class="st2" d="M144-7.3c-1.9,8.9-3.8,17.9-5.6,26.8c-0.4,1.8-0.5,3.6-0.9,5.4c-0.8,3.2-1.8,6.4-2.6,9.5     c-0.1,0.2-0.2,0.4-0.3,0.7c-0.3,5.3-2.9,9.9-4.5,14.8c-0.4,1.3-1.1,2.6-1.7,3.9c-0.7,1.6-1.3,3.2-1.9,4.8     c-2.1,5.3-4.1,10.7-6.4,16c-2.7,6.3-6,12.4-8.6,18.8c-3.7,9.3-7.1,18.8-10.5,28.3c-1.9,5.5-3.6,11.1-5.2,16.7     c-2,6.8-3.9,13.6-5.8,20.4c-0.4,1.4-0.7,2.8-0.8,4.2c-0.3,4.9-1.2,9.6-2.9,14.3c-1.4,3.7-0.9,8-1.7,11.9     c-3.7,18.6-4.7,37.4-4.5,56.2c0.1,7.6,1,15.2,1.5,22.9c0.1,1.8,0,3.6,0.2,5.4c0.2,2.5,0.5,5,1,7.5c0.7,3.6,1.5,7.1,2.4,10.6     c0.7,3,1.4,6,2.1,9c0.1,0.5,0.4,0.9,0.4,1.4c0.5,6.8,3.7,12.8,5.6,19.2c1.2,4.3,3.7,8.3,5.6,12.5c0.2,0.4,0.4,0.7,0.6,1     c1.5,3.5,2.8,7.2,4.5,10.6c1.5,3.1,3.5,6,5.2,9.1c4.8,8.8,11.2,16.7,17.7,24.4c5.1,6.1,11.1,11.6,17.1,17.1     c5,4.6,10.4,8.9,15.9,13.2c2.8,2.2,5.9,3.9,8.9,5.9c2,1.3,3.8,2.8,5.8,3.9c4.9,2.7,9.8,5.4,14.9,7.9c7.2,3.5,14.5,7,21.8,10.3     c3.2,1.4,6.6,2.4,9.8,3.8c1.1,0.5,2,1.4,2.7,2.3c1.1,1.3,2.1,2.8,3.1,4.3c-6.4,0-12.9,0-19.3,0c-0.7-0.7-1.2-1.5-2-2     c-2.2-1.3-4.5-2.6-6.9-3.7c-3.1-1.5-6.2-2.9-9.3-4.2c-1.3-0.6-2.8-0.8-4.3-1.1c-3.9-0.9-7.9-1.7-11.7-2.7     c-5.6-1.4-11.4-2.3-16.6-4.6c-11.8-5.3-21.4-13.5-29.9-22.8c-1.6-1.7-2.8-3.7-4.5-5.3c-6.3-6.1-10.9-13.4-15.4-20.7     c-6.1-9.7-12-19.6-16.2-30.3c-2.3-5.9-4.8-11.7-7.1-17.6c-0.4-1-0.8-2-1.2-3.1c-1.8-5-3.6-10.1-5.3-15.1     c-0.2-0.6-0.1-1.3-0.3-1.9c-0.6-3.2-1.3-6.5-2-9.7c-0.4-1.8-1.3-3.6-1.4-5.5c-1-9.4-4.2-18.4-4.3-28     c-0.2-14.1-1.6-28.3-1.6-42.4c0-12.9,0.5-25.8,1.8-38.7c1.3-13.2,3.3-26.4,6.7-39.3c2.1-8.1,3.9-16.2,6.2-24.3     c1.6-5.7,3.8-11.2,5.4-16.9c1.9-6.7,4-13.4,7-19.8c3.1-6.7,5.5-13.7,8.2-20.5c1.2-3.1,2.4-6.2,3.8-9.2c1.7-3.9,3.4-7.8,5.3-11.6     c3-6,6.4-11.8,9.1-18c3.6-8.2,5.4-17,7.3-25.6c0.8-3.4,1.1-6.8,1.7-10.3C134.4-7.3,139.2-7.3,144-7.3z"></path>				<path class="st1" d="M129.6-7.3c-0.5,3.4-0.9,6.9-1.7,10.3c-1.9,8.7-3.7,17.4-7.3,25.6c-2.7,6.1-6.1,12-9.1,18     c-1.9,3.8-3.6,7.7-5.3,11.6c-1.3,3-2.5,6.1-3.8,9.2c-2.7,6.8-5,13.8-8.2,20.5c-3,6.4-5.1,13-7,19.8c-1.6,5.7-3.8,11.2-5.4,16.9     c-2.2,8-4.1,16.2-6.2,24.3c-3.4,12.9-5.3,26.1-6.7,39.3c-1.3,12.8-1.8,25.8-1.8,38.7c0,14.1,1.4,28.3,1.6,42.4     c0.1,9.6,3.3,18.6,4.3,28c0.2,1.9,1,3.6,1.4,5.5c0.7,3.2,1.3,6.5,2,9.7c0.1,0.6,0.1,1.3,0.3,1.9c1.8,5.1,3.5,10.1,5.3,15.1     c0.4,1,0.8,2.1,1.2,3.1c2.4,5.9,4.8,11.7,7.1,17.6c4.2,10.7,10.2,20.6,16.2,30.3c4.5,7.2,9.1,14.6,15.4,20.7     c1.7,1.6,2.9,3.6,4.5,5.3c8.6,9.3,18.1,17.5,29.9,22.8c5.1,2.3,11,3.2,16.6,4.6c3.9,1,7.8,1.8,11.7,2.7c1.4,0.3,2.9,0.6,4.3,1.1     c3.2,1.3,6.3,2.7,9.3,4.2c2.3,1.1,4.6,2.4,6.9,3.7c0.8,0.5,1.3,1.3,2,2c-16.7,0-33.3,0-50,0c-2.9-0.9-5.8-2.6-8.6-2.6     c-8.4,0-14.9-4.6-20.9-8.9c-8.3-6-15.5-13.4-21.6-21.6c-2.8-3.8-5.7-7.5-8.2-11.5c-3.3-5.2-6.4-10.6-9.2-16.1     c-2.4-4.6-4.3-9.5-6.4-14.2c-1.6-3.7-3.3-7.4-4.6-11.2c-2.3-6.3-4.4-12.7-6.4-19.1c-1.8-6-3.4-12-5.1-18     c-0.9-3.2-1.7-6.5-2.6-9.7c0-64.6,0-129.2,0-193.8c0.8-1.1,1.9-2.2,2.5-3.4c2.3-5.2,3.4-10.8,6.5-15.7c0.9-1.4,1.2-3.9-0.9-4.2     c-3.3-0.4-5.4-2.5-8.1-3.7c0-6.9,0-13.9,0-20.8c5.4,0.2,9.7-2.3,13-5.8c3.4-3.6,5.9-7.9,8.4-12.1c2.1-3.7,3.6-7.7,5.5-11.5     c1.7-3.3,3.9-6.4,5.5-9.7c1.9-3.9,3.3-8.1,5.1-12c4.4-9.4,5.9-19.6,9-29.3C116.8-7.3,123.2-7.3,129.6-7.3z"></path>				<path class="st2" d="M282.2,447.5c-4.4-9.8-5.4-20.2-4.9-30.8c0.1-3.3-1.3-5.4-4.3-6.8c-9-4.3-18.1-8.6-27-13.2     c-4.6-2.4-9-5.2-13.3-8.1c-6.8-4.6-13.8-9.2-20.1-14.4c-7-5.8-13.4-12.1-19.7-18.6c-5.7-5.8-11.2-11.8-16.3-18     c-3.8-4.6-7.1-9.7-10.1-14.8c-4.9-8.3-9.5-16.8-14-25.4c-1.4-2.6-2.1-5.6-3-8.5c-2.1-6.2-4.4-12.4-6-18.7     c-2.2-8.2-4.1-16.5-5.6-24.9c-1-5.2-1.2-10.5-1.6-15.7c-1.1-13.8-0.6-27.7,0-41.5c0.6-12.3,3.8-24.1,5.1-36.2     c0.6-5.8,2.8-11.5,4.4-17.2c1.9-6.6,3.8-13.2,5.8-19.7c1.2-3.6,2.8-7.1,4.1-10.6c2.6-6.9,5.1-13.9,7.9-20.8     c1.7-4.2,3.9-8.3,5.7-12.5c1.6-3.9,2.9-8,4.5-12c2-5.1,4.1-10.1,6.3-15.1c1.9-4.3,4.6-8.4,6.1-12.9c1-3.2,0.6-6.8,0.9-10.2     c0.2-3.1,0.3-6.2,0.7-9.3c0.7-6.3,1.6-12.6,2.4-18.9c2.5,0,5,0,7.4,0c0.8,12.3,1.3,24.7,2.7,37c0.7,6.2-0.3,11.1-4.4,16.3     c-5.4,7-9.3,14.9-13.7,22.6c-3.4,5.9-6.6,12-9.5,18.1c-1.9,3.9-3.2,8.1-4.9,12.1c-2.1,5.1-4.6,10.1-6.4,15.3     c-1.9,5.5-3.2,11.2-4.8,16.8c-0.8,2.7-1.5,5.5-2.2,8.2c-2.8,12.1-5.7,24.1-5.7,36.6c0.1,14.6,0.4,29.1,0.8,43.7     c0.1,2.3,0.9,4.6,1.3,7c0.6,3.4,1.2,6.8,1.8,10.2c0.2,1.4,0.4,2.8,0.8,4.2c2.4,7.9,4.7,15.9,7.2,23.8c1,3.1,2.6,6.1,3.9,9.1     c2.5,5.5,4.7,11.1,7.5,16.4c2.7,5.1,6.1,9.8,9.2,14.8c1.5,2.5,2.7,5.2,4.4,7.6c10.9,15.5,22.1,30.7,36.2,43.8     c7.9,7.3,15.4,15.2,23.9,21.9c11.6,9,22.6,18.8,35.3,26.4c2.6,1.5,4.8,3.6,7.3,5.3c2.6,1.7,5.5,3.1,8.2,4.7     c2.6,1.5,3,3.6,2.8,6.4c-0.5,8.9-0.5,17.8-0.7,26.6C293.1,447.5,287.6,447.5,282.2,447.5z"></path>				<path class="st2" d="M365.4,447.5c-0.6-1.9-1.1-3.9-1.8-5.8c-1-2.7-2.4-5.2-3.2-7.9c-1.6-5.3,0.5-10.1,2.9-14.7     c2.9-5.5,6.1-11,9.4-16.3c3.1-5,6.5-9.8,9.7-14.7c0.3-0.4,0.6-0.8,0.8-1.2c3.3-5.9,6.7-11.7,9.9-17.6c3.5-6.6,6.8-13.2,10-19.9     c3.4-7.1,6.8-14.2,9.7-21.4c1.9-4.6,4.8-8.8,5-14c0-0.6,0.4-1.2,0.6-1.8c2.3-6.3,4.9-12.5,6.8-18.8c2.5-8.2,4.9-16.5,6.5-24.9     c2-10.2,3.5-20.5,4.6-30.8c0.9-8.4,1.7-17,1.4-25.4c-0.4-11.6-1.7-23.2-2.9-34.8c-0.5-5.1-1.6-10.2-2.7-15.3     c-0.8-3.8-2.2-7.4-2.9-11.2c-2.2-10.5-5.7-20.6-10.7-30.2c-0.4-0.8-0.8-1.6-0.9-2.4c-1.4-7.3-5.7-13.4-8.9-19.8     c-1.4-2.7-2.9-5.3-4.6-7.8c-5.7-8.7-10.9-17.6-17.3-25.8c-9.6-12.4-19.6-24.6-31.4-35.2c-6.3-5.7-12.6-11.5-19.2-17     c-4.9-4.2-10-8.3-15.4-11.7c-3.8-2.4-7.4-4.9-10.7-7.9c12.1,0,24.1,0,36.2,0c3.4,4.1,6.9,8.2,10.3,12.3     c7.3,8.7,14.6,17.4,21.8,26.3c4.5,5.5,8.7,11.2,12.8,17.1c4.8,6.9,9.3,14,13.8,21.1c4.2,6.8,8.4,13.7,12.1,20.8     c4.5,8.5,8.8,17.2,12.8,26c3.5,7.7,6.6,15.6,9.5,23.5c2.2,6.2,3.8,12.7,5.6,19c0.1,0.5,0.2,1,0.4,1.4c3.9,7.6,4.4,16,5.8,24     c1.9,10.5,2.9,21.2,3.5,31.9c0.5,9.3,0.1,18.7-0.4,28c-0.5,8.9-1.5,17.7-2.8,26.5c-1,6.5-2.8,12.9-4.7,19.3     c-1.9,6.6-4.1,13.1-6.7,19.5c-2.7,6.8-5.9,13.4-9,20.1c-1.4,3-2.8,6-4.5,8.9c-4.4,7.2-8.7,14.4-13.5,21.4     c-2.1,3.1-5.4,5.6-7.6,8.7c-5.5,7.7-10.7,15.6-15.8,23.6c-2.7,4.1-4.9,8.5-7.3,12.7c-0.2,0.3-0.4,0.5-0.5,0.8     c-3.4,10.3-7.7,20.5-7.2,31.6c0.1,3.4,1.2,6.8,1.9,10.1C373,447.5,369.2,447.5,365.4,447.5z"></path>				<path class="st2" d="M223.7-7.3c0.2,10.9,0.3,21.9,0.5,32.8c0.3,14,0.9,28,1.1,42c0,3-1.3,6.1-2.6,9c-2.1,4.7-4.6,9.2-7,13.8     c-1.9,3.8-4,7.6-5.8,11.5c-1.7,3.7-3.4,7.5-4.7,11.4c-3.6,10-7,20-10.4,30c-0.5,1.4-0.6,2.9-1,4.4c-0.9,3.7-1.8,7.5-2.7,11.2     c-0.5,2.3-0.8,4.7-1.1,7c-0.5,3.3-1.2,6.7-1.7,10c-0.5,3.5-1.3,7-1.4,10.5c-0.2,8.8-0.4,17.6-0.1,26.4     c0.2,5.6,1.2,11.1,1.9,16.6c0.3,2.8,0.7,5.6,1.1,8.4c0.1,0.5,0,1.1,0.1,1.6c1.8,7,3.5,14,5.5,21c1.5,5.1,3.3,10.2,5.3,15.2     c1.7,4.4,3.8,8.7,5.9,12.9c1.8,3.7,3.6,7.4,5.6,11c3,5.3,5.9,10.7,9.3,15.8c4.3,6.5,8.9,12.9,13.7,19.1c3.5,4.5,7.4,8.9,11.5,13     c6.1,6.3,12.5,12.3,18.8,18.4c2.2,2.1,4.5,4,6.7,6.1c0.4,0.4,0.4,1.4,0.5,2.1c-0.7,0.1-1.6,0.4-2,0.2c-2.5-1.5-4.9-3.1-7.2-4.8     c-4.7-3.6-9.4-7.2-13.8-11c-6.4-5.4-12.8-10.9-18.8-16.7c-6.1-5.7-12-11.7-17.6-17.8c-3.3-3.5-5.9-7.6-8.8-11.4     c-2-2.6-4.1-5.1-5.9-7.8c-2.3-3.4-4.3-7-6.4-10.6c-2.9-5-6-10-8.6-15.1c-2.3-4.4-4.1-9.1-6-13.7c-1.4-3.5-2.8-7.1-3.8-10.7     c-2.3-8.2-4.4-16.4-6.3-24.7c-0.7-3.1-1.1-6.4-1.2-9.6c-0.3-11-0.6-22-0.7-33.1c-0.1-9.3,1.4-18.5,3.5-27.6c2-9,3.3-18.1,5-27.2     c0.3-1.5,1.1-3,1.6-4.5c0.7-2.3,1.2-4.7,2-7c0.6-1.9,1.3-3.7,2-5.5c1.6-4,3.2-8.1,4.8-12.1c2-4.9,3.8-9.9,6.1-14.6     c4.3-8.7,8.8-17.4,13.5-26c2.6-4.7,5.4-9.4,8.4-13.9c2.7-4.1,3.5-8.3,3.3-13c-0.5-13.5-0.8-27.1-1.1-40.6c0-0.8,0-1.6,0-2.4     C217.8-7.3,220.8-7.3,223.7-7.3z"></path>				<path class="st2" d="M177.2-7.3c-0.8,5.6-1.3,11.3-2.5,16.8c-1.7,7.6-3.9,15.1-5.9,22.6c-0.4,1.5-0.8,3-1.2,4.6     c-0.1,0.5-0.2,1.1-0.4,1.6c-2,5-4,9.9-6,14.8c-1.6,3.9-3.2,7.8-4.9,11.6c-2,4.6-4.2,9.2-6.2,13.8c-0.3,0.7-0.6,1.4-0.9,2.2     c-2.3,5.5-4.6,10.9-6.8,16.4c-1.8,4.6-3.4,9.3-5.2,14c-1.5,3.9-3,7.8-4.9,11.5c-4.8,9.3-7.7,19.2-10.2,29.2     c-0.1,0.3-0.1,0.6-0.2,0.9c-1.8,5.7-3.8,11.3-5.4,17.1c-1.1,3.7-1.7,7.5-2.4,11.3c-3.1,15.3-5.6,30.8-5.3,46.4     c0.1,10,1.6,20.1,2.9,30.1c0.8,6.4,2.3,12.7,3.6,19c0.3,1.6,1.2,3.1,1.8,4.6c0.3,0.7,1,1.4,1.1,2.1c0.2,4.8,2.8,8.8,4.7,13.1     c2.6,5.9,5.8,11.6,8.8,17.4c1.4,2.7,2.9,5.5,4.6,8.1c10.4,16.1,22.3,31.2,36.8,44.2c8.5,7.6,17.1,15,25.8,22.3     c4.5,3.8,9.3,7.2,14.2,10.6c5.6,3.9,11.3,7.6,17,11.2c5.7,3.6,11.5,7,17.3,10.4c0.3,0.2,0.7,0.5,1.1,0.6     c4.2,0.7,5.2,3.6,6.2,7.2c1.7,6.5,4.2,12.7,6.3,19.1c-3.6,0-7.3,0-10.9,0c-2.3-7-4.5-14-8.1-20.5c-1.1-1.9-2.4-2.9-4.5-3.7     c-5.3-2-10.5-4.1-15.5-6.5c-7.7-3.8-15.2-7.8-22.7-12c-2.7-1.5-5-3.6-7.6-5.2c-8.7-5.4-16.3-12-24-18.5     c-7.7-6.5-14.8-13.7-20.5-21.9c-5.1-7.3-11.2-14.1-15.8-21.7c-5.2-8.5-9.4-17.5-13.6-26.4c-2.7-5.7-4.6-11.7-6.8-17.6     c-0.4-1.2-0.5-2.5-0.8-3.7c-0.6-1.9-1.4-3.8-1.9-5.8c-1-3.9-1.9-7.8-2.7-11.7c-5.1-23.5-5.1-47.2-3.7-71     c0.5-7.9,0.9-15.9,1.9-23.8c0.8-6.5,1.9-12.9,3.4-19.3c1.6-6.8,3.7-13.5,5.5-20.2c0.5-1.9,0.7-3.9,1.1-5.8     c0.2-1.3,0.2-2.7,0.6-4c2-6.2,4.1-12.4,6.2-18.6c0.2-0.5,0.4-1,0.5-1.6c1.5-9,5.8-17.2,8.7-25.7c2.7-7.7,6.2-15.2,9.6-22.7     c4.5-9.8,9.5-19.5,14.1-29.3c3.7-7.9,6.9-16,8.1-24.7c0.6-4.3,1.2-8.5,1.8-12.8C167.9-7.3,172.6-7.3,177.2-7.3z"></path>				<path class="st2" d="M253.4-7.3c0.1,17.4,0.1,34.8,0.1,52.2c0,2.4-0.2,4.9-0.2,7.3c0.1,5.3,2.8,8.1,8.4,8.6     c0.9,0.1,1.8,0.2,2.7,0.5c4.2,1.3,8.4,2.6,12.6,4c4.1,1.4,8.4,2.5,12.3,4.3c5.2,2.4,10.1,5.3,15.1,8c2.4,1.3,4.9,2.2,7.1,3.7     c5.5,3.8,11.1,7.6,16.3,11.9c6,4.9,11.9,9.9,17.2,15.5c5,5.3,9.3,11.2,13.5,17.1c3.6,5,6.8,10.4,10.2,15.6     c0.2,0.3,0.4,0.5,0.5,0.8c1.6,3.7,2.7,7.8,5,11.1c2.2,3.2,3.2,6.5,3.8,10.2c0.3,2,1.6,3.8,2.2,5.8c0.2,0.6-0.7,1.4-1,2.1     c-0.5-0.6-1.4-1.2-1.6-1.9c-0.7-2.8-1.1-5.7-4-7.5c-0.1-0.1-0.2-0.3-0.3-0.4c-1.6-3.6-3.2-7.3-4.9-10.9c-1-2-2.1-4.1-3.4-5.9     c-4.8-6.8-9.3-13.9-14.8-20.2c-5.2-6-11.2-11.5-17.4-16.7c-4.4-3.7-9.7-6.4-14.6-9.6c-1.9-1.2-3.6-2.8-5.6-3.8     c-5-2.3-10.1-4.6-15.3-6.5c-9.4-3.3-19-5.5-28.9-6.9c-2-0.3-4.1-0.4-6.1-0.1c-1.2,0.2-2.8,1-3.2,1.9c-1.7,3.6-5.3,5.3-7.8,8.1     c-3.2,3.5-6.5,6.9-9.4,10.5c-3.2,4.1-6.1,8.4-8.9,12.7c-1.7,2.7-3,5.6-4.5,8.4c-2.5,4.8-5.4,9.5-7.5,14.5     c-3,7-5.4,14.3-8.2,21.4c-0.8,2-2,3.9-2.8,5.9c-0.5,1.1-0.9,2.3-1.2,3.6c-0.4,2-0.5,4.1-1,6c-0.2,0.8-1.2,1.4-1.8,2     c-0.5-0.7-1.5-1.4-1.5-2.1c0.2-3,0.6-6,1.2-9c0.3-1.7,1.1-3.4,1.6-5.1c1-4,2-7.9,3-11.9c0.2-0.7,0.6-1.3,0.7-2     c1.2-7.3,4.5-13.9,7.2-20.7c1.8-4.6,3.2-9.2,5.1-13.8c1.6-3.9,3.7-7.7,5.6-11.5c1.6-3.2,3-6.4,4.6-9.6     c3.6-7.2,7.3-14.4,10.8-21.7c0.7-1.4,1-3.2,1-4.8c0-19.4-0.1-38.8-0.2-58.1c0-4.4-0.2-8.8-0.4-13.2     C247.5-7.3,250.5-7.3,253.4-7.3z"></path>				<path class="st2" d="M393.1,447.5c-2-10.1-2-20.2-0.4-30.5c0.9-5.8,3.7-9.8,8.4-13.2c2.8-2,5.5-4.2,8-6.6     c3.1-3.1,5.8-6.6,8.8-9.8c6.6-7.1,11.3-15.2,15.7-23.6c3.4-6.5,6.7-13.1,9.7-19.8c1.8-3.9,3-8,4.3-12.1     c2.2-6.8,4.5-13.6,6.3-20.5c1.6-6,2.6-12.2,4.1-18.2c0.8-3.3,2.2-6.4,3.3-9.6c0.3-0.9,0.9-1.7,1-2.7c1.6-10,4.3-19.9,4.2-30.1     c0-3.2,0.8-6.4,1.3-9.6c0.1-0.8,0.6-1.5,0.9-2.3c0.3,0,0.5-0.1,0.8-0.1c0.4,0.8,1,1.7,1.1,2.5c0.4,3,0.7,6.1,0.9,9.2     c0.8,14.2,1.8,28.4,2.2,42.7c0.5,15.7,0.6,31.5-2.5,47.1c-1,5.1-3.6,9.8-6.2,14.5c-4.1,7.4-10.3,12.6-16.2,18.3     c-5.3,5-10.9,9.5-16.4,14.3c-1.3,1.1-2.5,2.3-3.6,3.6c-6.6,7.6-13.2,15.2-18.3,23.9c-3.2,5.5-5.9,11.2-7,17.4     c-0.1,0.8-0.4,1.7-0.7,2.5c-1.4,3.4-1.6,6.7,0.1,10.1c0.4,0.8,0.5,1.8,0.8,2.7C400,447.5,396.6,447.5,393.1,447.5z"></path>				<path class="st1" d="M122.7,447.5c-19.6,0-39.3,0-58.9,0c0-36.1,0-72.2,0-108.2c0.3,1,0.7,1.9,1,2.9c1.8,6.8,3.2,13.7,5.6,20.3     c3.8,10.5,7.3,21.2,13,31c4.3,7.4,7.6,15.3,12.9,22.2c3,3.8,5.3,8.2,8.5,11.9C110.5,434.3,116.7,440.8,122.7,447.5z"></path>				<path class="st2" d="M396.1-7.3c1.4,1.9,2.8,3.8,4.1,5.9c5.5,8.9,10.9,17.8,16.3,26.7c1.8,3.1,3.3,6.3,4.9,9.5     c2.9,5.9,5.7,11.9,8.5,17.8c2.1,4.3,4.4,8.6,6.4,12.9c1,2.2,1.8,4.6,2.7,6.9c4.2,11.1,8.6,22.1,12.6,33.2     c2.2,6.2,3.6,12.7,5.4,19.1c1.8,6.3,3.9,12.5,5.5,18.8c0.7,3,0.5,6.2,0.6,9.3c0,0.5-0.7,1.4-1,1.4c-0.6-0.1-1.5-0.5-1.7-1     c-0.7-2.2-1.1-4.4-1.7-6.6c-0.5-1.7-1.1-3.4-1.7-5.1c-0.2-0.6-0.7-1.1-0.9-1.7c-1.6-5-3.1-10.1-4.9-15.1     c-1.2-3.4-2.7-6.7-4.2-10c-1.8-4-3.7-7.9-5.4-11.9c-1.7-3.8-3.2-7.8-5.1-11.5c-1.9-3.9-4.2-7.6-6.3-11.4     c-1.3-2.5-2.4-5.2-3.8-7.6c-4-7.2-8.1-14.4-12.4-21.5c-3.1-5.1-6.8-10-10.1-15.1c-4-5.9-7.9-11.9-11.9-17.9     c-1.2-1.7-2.6-3.2-3.9-4.9c-3.9-5.1-7.7-10.2-11.5-15.3c-1.3-1.7-2.8-3.3-4.2-4.9C380.2-7.3,388.2-7.3,396.1-7.3z"></path>				<path class="st2" d="M483.3,131.2c-0.4-0.8-0.8-1.6-1-2.4c-2.3-6.9-4.6-13.8-6.9-20.6c-0.2-0.7-0.5-1.3-0.6-2     c-0.6-3.8-1.8-7.4-3.6-10.9c-2-3.9-3.1-8.1-4.7-12.2c-2.7-7-5.4-14-8.3-20.9c-1.1-2.8-2.8-5.4-4-8.1c-1-2.2-1.7-4.6-2.8-6.7     c-1.6-3.2-3.5-6.4-5.2-9.6c-2-3.9-3.8-7.8-5.8-11.7c-1.7-3.1-3.5-6.2-5.4-9.3c-4.8-8-9.7-16.1-14.5-24.1c7.9,0,15.8,0,23.8,0     c1.6,3.4,3.3,6.8,4.9,10.3c2.8,6.1,5.4,12.3,8.1,18.4c2.1,4.8,4.2,9.7,6.2,14.6c2.1,5.1,4.1,10.2,6.1,15.4     c1.8,4.7,3.6,9.4,5.2,14.2c0.9,2.5,1.5,5.1,2.3,7.6c0.4,1.3,0.9,2.5,1.3,3.8c1.7,5.3,3.3,10.6,5,15.9     C483.3,105.7,483.3,118.5,483.3,131.2z"></path>				<path class="st2" d="M423.8,447.5c0.3-6.6,1.2-13,3.6-19.4c2.3-6.2,5.3-12.1,8.9-17.5c4.3-6.3,9-12.4,13.7-18.4     c4.3-5.5,8.8-10.8,13.3-16.1c2.1-2.4,4.4-4.6,6.7-6.9c4.4-4.5,8.8-8.9,13.2-13.4c0,7.1,0,14.2,0,21.3c-2.8,3.8-5.8,7.6-8.5,11.5     c-5.3,7.9-10.5,15.9-15.7,23.9c-1,1.6-2.1,3.2-3,4.9c-4.9,9.9-10.5,19.5-13.4,30.2C436.4,447.5,430.1,447.5,423.8,447.5z"></path>				<path class="st1" d="M483.3,92.9c-1.7-5.3-3.3-10.6-5-15.9c-0.4-1.3-0.9-2.5-1.3-3.8c-0.8-2.5-1.4-5.1-2.3-7.6     c-1.7-4.7-3.4-9.5-5.2-14.2c-2-5.1-4-10.3-6.1-15.4c-2-4.9-4.1-9.7-6.2-14.6c-2.7-6.2-5.4-12.3-8.1-18.4     c-1.6-3.5-3.2-6.8-4.9-10.3c9.9,0,19.8,0,29.7,0c1.4,3.2,2.7,6.4,4.1,9.5c1.7,3.6,3.5,7.2,5.3,10.8     C483.3,39.7,483.3,66.3,483.3,92.9z"></path>				<path class="st2" d="M110.3-7.3c-3.1,9.7-4.6,19.9-9,29.3c-1.8,3.9-3.2,8.1-5.1,12c-1.6,3.3-3.8,6.4-5.5,9.7     c-1.9,3.8-3.4,7.8-5.5,11.5c-2.5,4.2-5.1,8.6-8.4,12.1c-3.3,3.5-7.7,6-13,5.8c0-11,0-22.1,0-33.1c6.1,0.6,10.6-1.7,14.1-6.5     c3.7-5.2,5.3-11,6.8-17c1.9-7.8,3.5-15.7,2.9-23.8C95.1-7.3,102.7-7.3,110.3-7.3z"></path>				<path class="st2" d="M122.7,447.5c-6-6.7-12.2-13.2-18-20c-3.1-3.7-5.5-8.1-8.5-11.9c-5.3-6.9-8.6-14.8-12.9-22.2     c-5.7-9.8-9.2-20.5-13-31c-2.4-6.6-3.7-13.5-5.6-20.3c-0.3-1-0.7-1.9-1-2.9c0-8.2,0-16.4,0-24.6c0.9,3.2,1.7,6.5,2.6,9.7     c1.7,6,3.2,12,5.1,18c2,6.4,4.1,12.7,6.4,19.1c1.4,3.8,3,7.5,4.6,11.2c2.1,4.8,4,9.6,6.4,14.2c2.8,5.5,5.9,10.8,9.2,16.1     c2.5,4,5.4,7.7,8.2,11.5c6.1,8.2,13.3,15.6,21.6,21.6c6,4.3,12.4,8.9,20.9,8.9c2.9,0,5.8,1.7,8.6,2.6     C145.8,447.5,134.3,447.5,122.7,447.5z"></path>				<path class="st1" d="M442.6,447.5c3-10.7,8.5-20.3,13.4-30.2c0.8-1.7,1.9-3.3,3-4.9c5.2-8,10.4-16,15.7-23.9     c2.7-3.9,5.6-7.7,8.5-11.5c0,11.2,0,22.4,0,33.6c-1,1.5-2.1,2.9-3.1,4.4c-2,3.1-4.3,6-5.7,9.3c-3.3,7.6-6,15.4-9,23.2     C457.8,447.5,450.2,447.5,442.6,447.5z"></path>				<path class="st1" d="M87.5-7.3c0.6,8.1-1,15.9-2.9,23.8c-1.5,6-3,11.9-6.8,17c-3.4,4.8-8,7.1-14.1,6.5c0-15.7,0-31.4,0-47.3     C71.7-7.3,79.6-7.3,87.5-7.3z"></path>				<path class="st2" d="M465.4,447.5c3-7.7,5.8-15.5,9-23.2c1.4-3.3,3.8-6.2,5.7-9.3c1-1.5,2-3,3.1-4.4c0,3.2,0,6.3,0,9.5     c-0.4,0.9-0.7,1.7-1,2.6c-1.7,5-3.5,10-5,15c-1,3.2-1.6,6.5-2.4,9.8C471.7,447.5,468.6,447.5,465.4,447.5z"></path>				<path class="st2" d="M63.8,93.9c2.7,1.3,4.8,3.3,8.1,3.7c2.1,0.3,1.8,2.7,0.9,4.2c-3.1,4.9-4.2,10.5-6.5,15.7     c-0.6,1.2-1.6,2.3-2.5,3.4C63.8,111.8,63.8,102.9,63.8,93.9z"></path>				<path class="st1" d="M474.8,447.5c0.8-3.3,1.4-6.6,2.4-9.8c1.5-5,3.3-10,5-15c0.3-0.9,0.7-1.8,1-2.6c0,9.1,0,18.3,0,27.4     C480.4,447.5,477.6,447.5,474.8,447.5z"></path>				<path class="st2" d="M311.9,447.5c-0.4-4.5-0.8-8.9-1.1-13.4c-0.1-0.9,0.1-1.9,0.3-2.8c0.6-1.8,2-2.2,3.3-0.8     c0.8,0.8,1.7,1.7,1.9,2.7c1.1,4.7,2,9.5,2.9,14.3C316.8,447.5,314.4,447.5,311.9,447.5z"></path>				<path class="st2" d="M483.3,13.1c-1.8-3.6-3.6-7.2-5.3-10.8c-1.5-3.1-2.8-6.3-4.1-9.5c3.1,0,6.2,0,9.4,0     C483.3-0.5,483.3,6.3,483.3,13.1z"></path>				<path class="st2" d="M345.1,246.2c-0.7,7.3-0.7,14.7-2.2,21.8c-0.9,4.3-2.3,8.8-5.6,12.3c-0.7,0.7-1.2,1.5-1.6,2.4     c-3.1,5.6-8.1,9.1-14.4,10.7c-8.7,2.2-17.3,1.7-25.8-1c-1.5-0.5-3-0.8-4.5-1.3c-8.8-2.5-17.2-5.9-23.5-12.6     c-2.5-2.7-4.7-5.7-6.3-9c-2.9-5.9-5.9-11.9-7.8-18.1c-2-6.8-3.2-13.9-3.8-20.9c-0.6-7.2-1-14.6,0.2-21.6     c1.2-6.9,2.3-14,5.8-20.4c5.4-9.7,13-16.8,23.6-21.5c8.6-3.8,17.7-4.3,26.7-5.2c7.2-0.7,12.1,3.4,15.6,9c1.9,3,3.9,6,5.7,9     c1.7,2.8,3.5,5.7,4.6,8.8c1.9,5,3.2,10.1,4.8,15.1c1.4,4.5,2.5,9.1,4.2,13.5c2.7,7.2,3,14.6,3.6,22.1c0.2,2.3,0,4.6,0,6.8     C344.7,246.2,344.9,246.2,345.1,246.2z M313.8,275.5c9.9,1,18.4-6,20.6-12.5c2.7-8.4,3.9-16.9,3-25.6     c-0.5-5.2-1.4-10.3-2.5-15.4c-1.1-5-2.5-9.9-4.3-14.7c-1.8-4.9-4-9.8-6.4-14.4c-2.4-4.6-4.9-9.3-8.3-13.3     c-3.1-3.7-7.8-6.1-13-4.7c-5.7,1.5-12.1,0.8-17.1,4.7c-2.9,2.2-6.2,3.8-8.9,6.2c-6.3,5.8-8.4,13.7-11.5,21.1     c-0.2,0.5-0.3,1.1-0.3,1.6c0,6.1-0.4,12.1,0.1,18.2c0.4,4.6,2.5,9,3.1,13.5c0.7,5.3,3.4,9.7,6.2,13.9     c4.2,6.5,10.3,11.1,17.4,14.6c3.1,1.5,6.4,2.4,9.4,4C305.4,274.8,309.6,275.5,313.8,275.5z"></path>				<path class="st2" d="M357.7,165.1c-0.7-0.2-1.6-0.3-2.1-0.7c-3.3-3.3-6.4-6.7-9.6-10c-0.2-0.2-0.3-0.4-0.5-0.6     c-6.1-4.9-11.6-10.5-18.7-14.2c-4.2-2.2-8.2-4.8-12.5-6.8c-3.4-1.7-7.3-2.6-10.7-4.3c-5.9-3-12.6-3.4-18.6-5.7     c-8.2-3.2-15.2-0.8-21.6,4.1c-10.3,8-16.8,18.8-21.3,30.4c-3.9,9.9-7,20.1-9.9,30.4c-1.4,5-2.1,10.2-2.4,15.4     c-0.6,10-1.1,20.1-1,30.2c0.2,10.1,1.3,20.3,4.9,30c1.9,5.1,3.5,10.3,5.6,15.3c1.2,2.8,3,5.4,4.6,8.1c0.2,0.3,0.5,0.5,0.5,0.8     c0.2,1.3,0.4,2.6,0.5,3.9c-1-0.7-2.3-1.3-3.1-2.2c-3.2-4-6.6-7.8-9.3-12.1c-4.2-6.8-8.1-13.8-10.7-21.4     c-3.3-9.5-4.5-19.2-5.2-29c-0.5-7.6,0.4-15.3,1.4-22.8c1-7.4,2.5-14.8,4.6-21.9c1.5-5.3,4.3-10.3,6.6-15.4     c1.2-2.8,2.4-5.7,3.8-8.4c3.8-6.8,7.3-13.7,11.7-20.1c7.6-11.1,16.4-21.4,26.5-30.6c1.6-1.5,3.4-2.7,5.2-4     c2.5-1.7,5.2-1.6,7.9,0c5.4,3.3,11,6.3,16.4,9.7c4.8,3,10,5.4,13.9,9.6c0.8,0.9,2,1.4,2.9,2.1c4.9,3.6,9.9,7.1,14.6,10.8     c4.1,3.3,8.1,6.7,11.6,10.5c4.7,5.1,8.8,10.5,13.1,15.9c0.6,0.8,0.9,1.9,1.3,2.8C358,164.8,357.9,165,357.7,165.1z"></path>				<path class="st2" d="M377.2,299.1c-0.5,1.1-0.6,2.2-1.2,2.7c-2,1.4-1.7,3.6-2.6,5.3c-1.5,3.1-3.3,6-4.9,9.1     c-0.8,1.6-2,3-2.7,4.8c-1,2.4-2.5,4.6-3.9,6.8c-2,3.2-3.9,6.3-6,9.4c-4.7,6.9-9.7,13.6-14.4,20.6c-3.3,5-6.3,10.2-9.4,15.4     c-1.6,2.7-3.4,5.3-4.8,8.2c-2.1,4.1-3.8,8.3-5.7,12.5c-0.6,1.2-1.7,2.3-2.5,3.4c-0.7-1.2-1.4-2.5-2-3.8     c-0.3-0.7-0.2-1.6-0.2-2.3c0-4.1-2.1-6.7-5.7-8.6c-4.6-2.4-9-5.3-13.4-8c-11.7-7.2-21.7-16.3-31.9-25.3c-3.3-2.9-6.5-6-9.4-9.3     c-2.6-3-4.9-6.3-7.2-9.5c-2.7-3.8-5.2-7.8-7.9-11.7c-1.5-2.1-3.2-4.1-4.9-6.2c-0.4-0.5-0.9-1-1-1.6c-0.2-1.3-0.1-2.6-0.1-3.9     c1,0.7,2.3,1.3,3.1,2.2c5.8,6.7,11.5,13.5,17.4,20.1c3,3.4,6.2,6.8,9.7,9.8c5.6,4.7,11.3,9.4,17.3,13.5     c5.4,3.7,11.3,6.8,17.1,10.1c0.8,0.4,1.7,0.6,2.6,0.8c2.3,0.5,4.8,0.7,7,1.6c4.7,1.9,8.7,1.4,12.8-1.7     c7.5-5.4,14.4-11.3,20.2-18.3c4.6-5.6,9.1-11.1,13.7-16.7c0.4-0.4,0.7-0.9,1-1.3c2.2-3.5,4.5-7.1,6.7-10.6     c0.6-1,0.7-2.4,1.5-3.2c2.3-2.3,4.4-4.7,4.5-8.1c0-0.2,0.3-0.4,0.5-0.5c2.3-1.1,3.4-2.9,3.4-5.5c0-0.6,1.4-1.3,2.1-1.9     C376.2,297.9,376.7,298.5,377.2,299.1z"></path>				<path class="st2" d="M340.9,316.1c-0.1,0.5-0.1,1.1-0.4,1.5c-3,4.6-5.4,9.5-9.8,13.2c-2.6,2.1-4.5,5-6.7,7.6     c-3.8,4.7-6,5.1-11.3,2.2c-6.4-3.5-12.7-7-19.1-10.5c-4.1-2.2-8.3-4.2-12.3-6.6c-2.4-1.4-4.4-3.2-6.5-4.9     c-0.5-0.4-0.8-1.4-0.7-1.8c0.2-0.4,1.2-0.8,1.8-0.8c0.8,0,1.7,0.1,2.4,0.4c8.2,4.6,17.2,6.7,26.4,8.1c6.5,1,13.1,1.3,19.7-1.1     c4.5-1.6,8.4-3.7,12.3-6.2c1.1-0.7,2.4-1.2,3.5-1.8C340.5,315.7,340.7,315.9,340.9,316.1z"></path>				<path class="st2" d="M381.8,182.7c-0.3-1.8-0.7-3.7-0.9-5.5c0-0.4,0.6-1.3,1-1.3c0.5,0,1.3,0.5,1.5,0.9c1.1,2.1,0.6,4-0.5,5.8     C382.6,182.7,382.2,182.7,381.8,182.7z"></path>				<path class="st2" d="M233.3,305.4c-1.4-0.4-2.2-1.1-1.8-2.6c0.1-0.3,1.1-0.6,1.1-0.5c0.6,0.9,1.2,1.8,1.7,2.7     C234,305.1,233.7,305.2,233.3,305.4z"></path>				<path class="st2" d="M464.1,169.5c-0.2-2.9-0.3-5.8-0.4-8.7c0-0.3,0.4-0.8,0.7-0.9c0.3-0.1,0.8,0.1,1,0.4     c1.4,1.4,1.1,7.8-0.3,9.2C464.7,169.5,464.4,169.5,464.1,169.5z"></path>				<path class="st1" d="M313.8,275.5c-4.2,0-8.4-0.7-12.4-2.8c-3-1.6-6.4-2.5-9.4-4c-7.1-3.4-13.2-8.1-17.4-14.6     c-2.8-4.3-5.5-8.6-6.2-13.9c-0.6-4.6-2.7-9-3.1-13.5c-0.6-6-0.1-12.1-0.1-18.2c0-0.5,0.1-1.1,0.3-1.6     c3.1-7.4,5.2-15.4,11.5-21.1c2.6-2.4,6-4,8.9-6.2c5-3.9,11.4-3.2,17.1-4.7c5.2-1.3,9.9,1,13,4.7c3.3,4,5.8,8.7,8.3,13.3     c2.5,4.7,4.6,9.5,6.4,14.4c1.8,4.8,3.2,9.7,4.3,14.7c1.1,5.1,2,10.2,2.5,15.4c0.9,8.7-0.3,17.3-3,25.6     C332.2,269.5,323.7,276.5,313.8,275.5z M310.9,226c0.1-0.2,0.3-0.4,0.4-0.6c-1-0.9-2.2-1.6-2.9-2.6c-2.6-3.9-6.5-4.9-10.9-4.6     c-5,0.3-7.3,2.6-7.4,7.4c-0.1,3.6,0.2,7.2,0.1,10.9c-0.1,3.1,0.7,5.8,2.2,8.6c4.5,8.3,12.1,11.6,21.2,12.4     c1.6,0.1,3.5-0.8,4.9-1.6c1.5-0.8,2.5-2.5,1.4-4c-0.4-0.6-2.5-0.4-3.7,0c-3.9,1.3-7.4,0.9-10.1-2.3c-2.6-3-4.8-6.2-7.2-9.3     c-0.3-0.4-0.4-0.9-0.5-1.3c-0.5-2.5-1-5-1.3-7.5c-0.6-5.1,1.9-7.6,7.1-7.5c2,0,3.9,0.2,5.4,1.8     C309.9,225.9,310.5,225.9,310.9,226z"></path>				<path class="st2" d="M310.9,226c-0.4-0.1-1-0.1-1.3-0.3c-1.4-1.6-3.4-1.8-5.4-1.8c-5.2-0.1-7.7,2.5-7.1,7.5     c0.3,2.5,0.8,5,1.3,7.5c0.1,0.5,0.2,1,0.5,1.3c2.3,3.1,4.6,6.3,7.2,9.3c2.7,3.1,6.2,3.5,10.1,2.3c1.1-0.4,3.2-0.5,3.7,0     c1.1,1.5,0.1,3.2-1.4,4c-1.5,0.8-3.3,1.8-4.9,1.6c-9.2-0.8-16.8-4.1-21.2-12.4c-1.5-2.8-2.3-5.5-2.2-8.6     c0.1-3.6-0.2-7.2-0.1-10.9c0.1-4.8,2.4-7.1,7.4-7.4c4.5-0.3,8.3,0.8,10.9,4.6c0.7,1,1.9,1.8,2.9,2.6     C311.2,225.6,311.1,225.8,310.9,226z"></path>			</g>		</g>		<use xlink:href="#SVGID_1_" style="overflow:visible;fill:none;stroke:#6699D2;stroke-width:10;stroke-miterlimit:10;"></use>	</g>	<g>		<g>			<polygon class="st3" points="345.8,98.4 343.2,173.4 348.3,173.4    "></polygon>			<polygon class="st3" points="358.8,116.8 345.5,133.3 346.7,134.1    "></polygon>			<polygon class="st3" points="359.7,132.1 346.4,148.5 347.6,149.3    "></polygon>			<polygon class="st3" points="332.8,116.6 346.1,133 344.9,133.9    "></polygon>			<polygon class="st3" points="331.9,131.8 345.2,148.2 344,149.1    "></polygon>		</g>		<g>			<polygon class="st3" points="194.5,117.8 192.7,169.6 196.3,169.6    "></polygon>			<polygon class="st3" points="203.5,130.6 194.4,141.9 195.2,142.5    "></polygon>			<polygon class="st3" points="204.2,141.1 195,152.4 195.8,153    "></polygon>			<polygon class="st3" points="185.6,130.4 194.8,141.7 194,142.3    "></polygon>			<polygon class="st3" points="185,140.9 194.1,152.3 193.3,152.9    "></polygon>		</g>		<g>			<polygon class="st3" points="257.9,28.2 253,169.6 262.7,169.6    "></polygon>			<polygon class="st3" points="282.5,63 257.5,94 259.6,95.6    "></polygon>			<polygon class="st3" points="284.2,91.7 259.2,122.7 261.4,124.3    "></polygon>			<polygon class="st3" points="233.5,62.6 258.5,93.5 256.4,95.2    "></polygon>			<polygon class="st3" points="231.8,89.1 256.8,120.1 254.6,121.7    "></polygon>			<polygon class="st3" points="284.2,115.4 259.2,146.4 261.4,148    "></polygon>		</g>	</g>	<rect x="5" y="164" class="st4" width="541" height="103.3"></rect>	<g>		<path class="st3" d="M55.8,245.6h-6.3V185h6.3c3.1,0.1,6,0.7,8.7,1.8c2.8,1.2,5.2,2.6,7.3,4.4c1.1,0.9,2,1.9,2.8,3   c0.8,1.1,1.5,2.2,2.2,3.4c1.2,2.4,1.8,5,1.8,7.7c0,2.7-0.6,5.3-1.8,7.7c-1.3,2.6-3,4.8-5,6.5c-2.1,1.8-4.5,3.3-7.3,4.4   c-1.3,0.6-2.7,1-4.2,1.3c-1.5,0.3-3,0.4-4.5,0.5V245.6z M55.8,220.4c2.3-0.1,4.4-0.5,6.4-1.3c2-0.8,3.8-1.9,5.3-3.3   c1.6-1.4,2.8-2.9,3.7-4.7c0.9-1.7,1.3-3.6,1.3-5.7s-0.4-4-1.3-5.7c-0.9-1.7-2.1-3.3-3.7-4.7c-1.6-1.4-3.4-2.5-5.3-3.2   c-1.1-0.4-2.1-0.7-3.2-1c-1-0.2-2.1-0.4-3.3-0.4V220.4z"></path>		<path class="st3" d="M92.8,185c3.1,0.1,6.1,0.7,8.9,1.8c2.7,1.2,5.1,2.6,7.2,4.4c2,1.7,3.6,3.9,4.9,6.4c1.2,2.4,1.8,5,1.8,7.7   c0,8.9-4.9,15.2-14.8,18.9c0.3,0.3,0.7,0.7,1,1c0.3,0.3,0.6,0.7,1,1.1c0.7,0.9,1.2,1.7,1.7,2.5l2.9,5.1c2.7,3.7,5.6,5.9,8.9,6.5   v5.5c-6.5-1.7-10.7-4.1-12.6-7.2l-2.6-4.8c-0.3-0.6-0.7-1.2-1-1.8c-0.3-0.5-0.7-1.1-1-1.5c-0.3-0.5-0.7-0.9-1-1.3   c-0.3-0.4-0.7-0.8-1-1.1l-1.7-1.5l-1.8-1.2c-0.4,0-0.6,0-0.7,0.1v19.8h-6.3V185H92.8z M92.8,220.4c2.5-0.1,4.7-0.6,6.7-1.4   c2-0.8,3.8-1.9,5.3-3.3c1.4-1.2,2.6-2.8,3.5-4.7c0.8-1.8,1.2-3.7,1.2-5.6c0-2.1-0.4-4.1-1.3-5.8c-0.9-1.8-2.1-3.3-3.6-4.7   c-1.6-1.4-3.4-2.5-5.3-3.2c-2.1-0.8-4.3-1.2-6.5-1.3V220.4z"></path>		<path class="st3" d="M191.1,215.4c0,4.3-0.9,8.2-2.8,11.9c-1.9,3.8-4.5,7.1-7.6,9.8c-3.2,2.8-6.9,5-11.2,6.6   c-4.2,1.6-8.8,2.4-13.8,2.4c-4.9,0-9.4-0.8-13.6-2.4c-2.1-0.8-4.2-1.8-6.1-2.9s-3.7-2.4-5.3-3.8c-1.7-1.4-3.1-2.9-4.4-4.5   c-1.3-1.6-2.4-3.4-3.3-5.2c-1.9-3.6-2.8-7.6-2.8-11.8c0-4.3,0.9-8.2,2.8-11.9c1.7-3.6,4.2-6.9,7.5-9.8c3.1-2.7,6.9-4.9,11.3-6.6   c4.2-1.6,8.8-2.4,13.8-2.4c4.9,0,9.5,0.8,13.7,2.4c4.3,1.6,8,3.8,11.3,6.6c3.2,2.8,5.7,6.1,7.6,9.8   C190.2,207.1,191.1,211.1,191.1,215.4z M131.4,201.3c-3.3,4.3-5,8.9-5,14c0,3.3,0.8,6.6,2.3,9.7c1.5,3.1,3.6,5.8,6.2,8   c2.7,2.4,5.8,4.2,9.3,5.4c3.5,1.4,7.3,2.1,11.5,2.1c3.9,0,7.7-0.7,11.2-2.1c3.5-1.3,6.6-3.1,9.3-5.4c2.6-2.2,4.7-4.8,6.4-8   c1.5-3.1,2.3-6.4,2.3-9.8c0-3.3-0.8-6.6-2.3-9.8c-1.6-3-3.7-5.7-6.3-8c-2.7-2.3-5.8-4.1-9.3-5.5c-3.6-1.3-7.4-2-11.3-2   c-4.8,0-9.4,1-13.6,2.9C137.7,194.9,134.1,197.7,131.4,201.3z"></path>		<path class="st3" d="M234.8,185v45c0,2-0.5,4-1.4,5.9c-1,1.9-2.3,3.5-3.9,4.9c-1.7,1.5-3.6,2.6-5.7,3.4c-2.2,0.9-4.5,1.3-6.9,1.3   c-2.5,0-4.7-0.4-6.8-1.3c-2.1-0.8-4-1.9-5.7-3.4c-1.7-1.4-3-3-3.9-4.9c-1-1.8-1.5-3.8-1.5-5.9v-45h6.1v45c0,1.3,0.3,2.6,0.9,3.8   c0.5,1.2,1.3,2.2,2.4,3.2c1.2,1,2.4,1.8,3.7,2.2c1.3,0.6,2.9,0.9,4.7,0.9c1.7,0,3.2-0.3,4.6-0.9c1.4-0.5,2.6-1.2,3.7-2.2   c1-0.8,1.9-1.9,2.6-3.2c0.6-1.2,0.9-2.5,0.9-3.9v-45H234.8z"></path>		<path class="st3" d="M253.5,245.6v-55.1h-12V185h30.4v5.5h-12v55.1H253.5z"></path>		<path class="st3" d="M279,185h5.2c6.9,0,13.7,2.7,20.5,8.1c7.8,6.2,11.7,13.6,11.7,22.2c0,3.1-0.5,6-1.5,8.8   c-0.5,1.4-1.2,2.8-1.9,4.2c-0.7,1.3-1.6,2.6-2.5,3.8c-1.9,2.5-4.2,4.7-6.8,6.6c-1.3,1-2.7,1.8-4.2,2.6c-1.5,0.8-3,1.4-4.7,2   c-4.3,1.6-7.9,2.3-10.6,2.3H279V185z M285.3,240.1c3.5-0.4,6.8-1.4,9.9-2.9c3-1.4,5.6-3.3,7.9-5.5c2.2-2.1,4-4.7,5.3-7.6   c1.3-2.7,1.9-5.7,1.9-8.8c0-3.1-0.6-6.1-1.9-8.8c-1.3-2.8-3.1-5.3-5.4-7.5c-1.1-1.1-2.4-2.1-3.7-3c-1.3-0.9-2.7-1.8-4.3-2.5   c-3.1-1.5-6.4-2.5-9.8-2.9V240.1z"></path>		<path class="st3" d="M391.7,215.4c0,4.3-0.9,8.2-2.8,11.9c-1.9,3.8-4.5,7.1-7.6,9.8c-3.2,2.8-6.9,5-11.2,6.6   c-4.2,1.6-8.8,2.4-13.8,2.4c-4.9,0-9.4-0.8-13.6-2.4c-2.1-0.8-4.2-1.8-6.1-2.9s-3.7-2.4-5.3-3.8c-1.7-1.4-3.1-2.9-4.4-4.5   c-1.3-1.6-2.4-3.4-3.3-5.2c-1.9-3.6-2.8-7.6-2.8-11.8c0-4.3,0.9-8.2,2.8-11.9c1.7-3.6,4.2-6.9,7.5-9.8c3.1-2.7,6.9-4.9,11.3-6.6   c4.2-1.6,8.8-2.4,13.8-2.4c4.9,0,9.5,0.8,13.7,2.4c4.3,1.6,8,3.8,11.3,6.6c3.2,2.8,5.7,6.1,7.6,9.8   C390.8,207.1,391.7,211.1,391.7,215.4z M332,201.3c-3.3,4.3-5,8.9-5,14c0,3.3,0.8,6.6,2.3,9.7c1.5,3.1,3.6,5.8,6.2,8   c2.7,2.4,5.8,4.2,9.3,5.4c3.5,1.4,7.3,2.1,11.5,2.1c3.9,0,7.7-0.7,11.2-2.1c3.5-1.3,6.6-3.1,9.3-5.4c2.6-2.2,4.7-4.8,6.4-8   c1.5-3.1,2.3-6.4,2.3-9.8c0-3.3-0.8-6.6-2.3-9.8c-1.6-3-3.7-5.7-6.3-8c-2.7-2.3-5.8-4.1-9.3-5.5c-3.6-1.3-7.4-2-11.3-2   c-4.8,0-9.4,1-13.6,2.9C338.3,194.9,334.7,197.7,332,201.3z"></path>		<path class="st3" d="M467.1,215.4c0,4.3-0.9,8.2-2.8,11.9c-1.9,3.8-4.5,7.1-7.6,9.8c-3.2,2.8-6.9,5-11.2,6.6   c-4.2,1.6-8.8,2.4-13.8,2.4c-4.9,0-9.4-0.8-13.6-2.4c-2.1-0.8-4.2-1.8-6.1-2.9s-3.7-2.4-5.3-3.8c-1.7-1.4-3.1-2.9-4.4-4.5   c-1.3-1.6-2.4-3.4-3.3-5.2c-1.9-3.6-2.8-7.6-2.8-11.8c0-4.3,0.9-8.2,2.8-11.9c1.7-3.6,4.2-6.9,7.5-9.8c3.1-2.7,6.9-4.9,11.3-6.6   c4.2-1.6,8.8-2.4,13.8-2.4c4.9,0,9.5,0.8,13.7,2.4c4.3,1.6,8,3.8,11.3,6.6c3.2,2.8,5.7,6.1,7.6,9.8   C466.2,207.1,467.1,211.1,467.1,215.4z M407.4,201.3c-3.3,4.3-5,8.9-5,14c0,3.3,0.8,6.6,2.3,9.7c1.5,3.1,3.6,5.8,6.2,8   c2.7,2.4,5.8,4.2,9.3,5.4c3.5,1.4,7.3,2.1,11.5,2.1c3.9,0,7.7-0.7,11.2-2.1c3.5-1.3,6.6-3.1,9.3-5.4c2.6-2.2,4.7-4.8,6.4-8   c1.5-3.1,2.3-6.4,2.3-9.8c0-3.3-0.8-6.6-2.3-9.8c-1.6-3-3.7-5.7-6.3-8c-2.7-2.3-5.8-4.1-9.3-5.5c-3.6-1.3-7.4-2-11.3-2   c-4.8,0-9.4,1-13.6,2.9C413.7,194.9,410.1,197.7,407.4,201.3z"></path>		<path class="st3" d="M481.6,185c3.1,0.1,6.1,0.7,8.9,1.8c2.7,1.2,5.1,2.6,7.2,4.4c2,1.7,3.6,3.9,4.9,6.4c1.2,2.4,1.8,5,1.8,7.7   c0,8.9-4.9,15.2-14.8,18.9c0.3,0.3,0.7,0.7,1,1c0.3,0.3,0.6,0.7,1,1.1c0.7,0.9,1.2,1.7,1.7,2.5l2.9,5.1c2.7,3.7,5.6,5.9,8.9,6.5   v5.5c-6.5-1.7-10.7-4.1-12.6-7.2l-2.6-4.8c-0.3-0.6-0.7-1.2-1-1.8c-0.3-0.5-0.7-1.1-1-1.5c-0.3-0.5-0.7-0.9-1-1.3   c-0.3-0.4-0.7-0.8-1-1.1l-1.7-1.5l-1.8-1.2c-0.4,0-0.6,0-0.7,0.1v19.8h-6.3V185H481.6z M481.6,220.4c2.5-0.1,4.7-0.6,6.7-1.4   c2-0.8,3.8-1.9,5.3-3.3c1.4-1.2,2.6-2.8,3.5-4.7c0.8-1.8,1.2-3.7,1.2-5.6c0-2.1-0.4-4.1-1.3-5.8c-0.9-1.8-2.1-3.3-3.6-4.7   c-1.6-1.4-3.4-2.5-5.3-3.2c-2.1-0.8-4.3-1.2-6.5-1.3V220.4z"></path>	</g>	<g id="ZmQLUb_1_">		<g>			<path class="st3" d="M281.3,276.2c2.4,1.3,4.9,2.5,7.3,3.8c3.4,1.9,5.9,4.9,8.7,7.4c3.2,2.8,6.6,5.5,9.8,8.2    c0.7,0.6,1.6,0.8,2.5,0.7c8.5-0.4,17.1-0.4,25.6,0.5c5.6,0.6,11.2,1.6,16.7,2.7c5.3,1,10.5,2.2,15.7,3.6c5.5,1.5,11,3.3,16.5,5    c1.3,0.4,2.5,0.9,3.7,1.5c3.3,1.6,6.6,3.3,9.9,5c2.7,1.4,4.7,3.5,6.6,5.8c0.2,0.2,0.3,0.5,0.5,0.7c0.7,1.3,0.6,1.9-0.8,2.5    c-0.6,0.3-1.2,0.4-1.8,0.7c-2.5,1.1-4.9,2.3-7.4,3.4c0,0.1,0.1,0.3,0.1,0.4c0.5,0,1,0,1.5,0c1.1,0,2.1,0.1,3.2,0    c0.5,0,1-0.2,1.3-0.5c1.7-1.6,4-1.2,5,0.9c0,0.3,0,0.5,0,0.8c-0.8,2-2.4,3.1-4.3,3.6c-2.7,0.8-5.5,1.5-8.3,2    c-8.8,1.7-17.4,4.1-25.9,6.7c-5,1.6-10.1,2.3-15.3,2.9c-5.5,0.6-10.9,1.3-16.4,1.8c-5,0.5-10,1.1-15,1.4    c-5.2,0.4-10.5,0.8-15.8,0.9c-5.8,0.1-11.7-0.2-17.5-0.4c-0.5,0-1,0.2-1.3,0.5c-3.7,3.1-7.1,6.5-10.4,10.1    c-2.6,2.9-5.7,5.2-9.1,7.3c-1.8,1.1-2.6,0.9-3.1-1.1c-1-3.3-1.8-6.6-2.5-10c-0.4-1.8,0-3.7,0.9-5.3c0.2-0.4,0.7-0.8,1.2-0.9    c2.2-0.7,4.4-1.2,6.5-2c-1.1-0.1-2.3-0.2-3.4-0.4c-4.6-0.8-9.1-1.7-13.7-2.4c-2.1-0.3-4-1.2-5.8-2.1c-0.5-0.3-0.9-0.3-1.5,0.1    c-3.4,2.6-6.8,5.2-10.2,7.8c-5.1,3.9-10.6,7-16.5,9.3c-0.3,0.1-0.7,0.2-1,0.3c-1.1,0.2-2.1-0.3-2.3-1.5c-0.1-1-0.1-2-0.1-3.1    c0.3-4.6,0.6-9.3-0.1-13.9c-0.2-1.1-0.4-2.3-0.7-3.4c-0.2-0.7,0-1,0.7-1.2c3.1-1,6.2-2.1,9.3-3.2c0.3-0.1,0.6-0.2,1-0.4    c-2.3-1-4.6-1.8-7-1.9c-4.7-0.2-9.3-0.4-13.9,0.9c-4.2,1.1-8,3.3-11.6,5.6c-4.9,3.2-9.8,6.7-15.4,8.7c-5.2,1.9-10.5,3.6-15.7,5.4    c-0.7,0.2-1.4,0.5-2.1,0.7c-1,0.3-1.2,0.2-1.2-0.8c-0.1-7.8,0.3-15.5,3.1-22.9c1.9-5.1,1.6-10.3,0.3-15.4    c-1.7-6.5-2.9-13.2-5.2-19.6c-0.4-1.1-0.7-2.2,0.3-3.2c0.5-0.5,1.1-0.8,1.8-0.6c2.7,0.8,5.4,1.5,8,2.4c6.3,2.2,12.4,4.9,17.8,8.9    c2.8,2.1,5.6,4.1,8.2,6.3c1.9,1.6,4,2.2,6.3,2.5c5.2,0.7,10.4,0,15.5-1.1c0.4-0.1,0.9-0.2,1.3-0.3c0,0,0.1-0.1,0.1-0.1    c-0.5-0.6-1-1.1-1.4-1.7c-0.9-1.4-0.3-2.5,1.3-3.1c2-0.7,3.9-0.4,5.7,0.6c1.2,0.6,2.4,1.3,3.5,2c0.6,0.4,1.1,0.5,1.8,0.3    c6.6-1.2,13.1-2.5,19.7-3.5c5.1-0.8,10.2-1.4,15.2-2c1.7-0.2,3.4-0.4,5.2-0.9c-1.3-0.8-2.5-1.5-3.8-2.3c-1.7-1-2.4-0.9-0.1-2.4    c5.3-3.5,9.4-8.1,12.7-13.4c0.8-1.3,1.6-2.5,2.5-3.8c0.5-0.7,1.3-1.3,1.9-2C280.5,276.2,280.9,276.2,281.3,276.2z M215.2,337.2    c1,3.9,1.3,7.8,1.1,11.7c-0.1,2.6-0.3,5.1-0.4,7.7c-0.1,1.9,0.5,2.2,2.3,1.6c0.4-0.1,0.8-0.3,1.2-0.4c4.8-2.1,9.4-4.6,13.6-7.7    c4-2.9,8-6,11.9-9.1c0.6-0.5,1.1-0.4,1.8-0.1c1.8,0.8,3.6,1.5,5.5,2.1c1,0.3,2.1,0.4,3.2,0.6c5.6,1.1,11.2,2.3,16.9,2.6    c0.3,0,0.5,0.3,0.8,0.4c-0.2,0.2-0.4,0.5-0.7,0.5c-2.5,0.7-5,1.4-7.5,2.1c-2.4,0.7-3,1.4-3.2,3.8c0,0.3,0,0.5,0,0.8    c0.1,4,1.6,7.7,2.7,11.5c0.3,0.9,0.9,0.6,1.5,0.2c3.7-2.3,6.9-5.1,10-8.1c3.1-3.1,6.3-6.1,9.4-9.2c0.8-0.8,1.7-0.9,2.8-0.9    c6.2,0.2,12.4,0.5,18.6,0.4c6.1-0.1,12.2-0.7,18.2-1.2c4.5-0.4,9.1-0.9,13.6-1.4c4.8-0.5,9.6-1.1,14.4-1.6    c4.2-0.5,8.4-1,12.5-2.2c5.2-1.5,10.3-3.2,15.5-4.5c6.1-1.5,12.3-2.7,18.4-4.1c1.8-0.4,3.5-1,4.9-2.3c0.6-0.5,1.2-1.3,0.7-2    c-0.4-0.5-1.3-0.7-2-0.9c-0.3-0.1-0.8,0.3-1.1,0.6c-0.7,0.7-1.4,1-2.3,0.9c-1.9-0.1-3.8-0.2-5.7-0.2c-0.4,0-1,0.1-1.3,0.4    c-1.5,1-3,2.1-4.4,3.3c-2.1,1.6-4.4,1.8-6.7,0.6c-0.7-0.4-1.1-0.9-0.6-1.6c1.3-1.9,2.4-4,4.6-5c2.5-1.2,5.1-2.1,7.7-3.1    c0.2-0.1,0.6,0.1,0.9,0.1c-0.2,0.2-0.4,0.6-0.7,0.7c-2.2,0.9-4.4,1.6-6.5,2.5c-2.5,1-3.9,3.2-5.3,5.3c1.8,1.4,4.1,1.3,6-0.3    c4.7-3.8,9.8-6.7,15.5-8.7c1.6-0.6,1.7-0.8,0.6-2.2c-1.7-2.1-3.5-4.1-6-5.4c-4.3-2.1-8.4-4.6-12.9-6.3c-6-2.2-12.2-3.9-18.4-5.6    c-5.6-1.5-11.3-2.6-17-3.8c-8.2-1.7-16.5-2.8-24.9-2.8c-4.9,0-9.8-0.1-14.6,0.1c-1.7,0.1-2.9-0.5-4-1.5c-4.1-3.5-8.3-7-12.3-10.7    c-3.5-3.3-7.6-5.7-11.9-7.6c-0.9-0.4-1.6-0.2-2.2,0.6c-0.9,1.3-1.8,2.5-2.6,3.8c-2.9,4.6-6.2,8.8-10.5,12.2    c-1.1,0.9-2.3,1.7-3.5,2.6c1.9,1.1,3.6,2.1,5.4,3.2c0.2,0.1,0.4,0.5,0.5,0.7c-0.2,0.1-0.5,0.3-0.7,0.4c-1.4,0.2-2.7,0.4-4.1,0.6    c-6.1,0.8-12.3,1.5-18.4,2.5c-6.3,1-12.6,2.2-18.9,3.4c-0.7,0.1-1.3,0.1-2-0.4c-1.2-0.8-2.5-1.5-3.7-2.2    c-1.6-0.8-3.2-1.1-4.9-0.5c-1.1,0.4-1.4,0.9-0.7,1.9c0.5,0.7,1.3,1.3,1.9,1.9c0.2,0.2,0.3,0.4,0.4,0.6c-0.2,0.2-0.4,0.4-0.7,0.4    c-1,0.2-2,0.3-2.9,0.5c-5.3,1.1-10.6,1.7-16,0.8c-1.4-0.2-2.9-0.6-4.2-1.2c-0.9-0.4-1.7-1.3-2.5-2c-6.6-5.3-13.4-10.2-21.4-13.1    c-3.6-1.3-7.3-2.5-11-3.7c-1.3-0.4-2.1,0.4-1.9,1.8c0.1,0.4,0.1,0.8,0.3,1.1c2.4,6.8,3.7,13.9,5.4,20.8c0.9,3.9,1.3,7.9,0.2,11.8    c-0.7,2.4-1.5,4.8-2.2,7.3c-1.4,5.1-1.6,10.4-1.6,15.7c0,0.8,0,1.5,0,2.4c2.7-0.9,5.2-1.7,7.6-2.5c5.1-1.7,10.3-3.2,14.9-5.8    c3.9-2.2,7.7-4.7,11.5-7.1c3.7-2.3,7.5-4.2,11.7-5.3c3.3-0.8,6.7-0.6,10.1-0.7c3.9-0.2,7.5,0.6,11,2.2c0.3,0.1,0.6,0.4,0.8,0.7    c-0.3,0.2-0.6,0.5-0.9,0.6C222.5,334.7,218.9,336,215.2,337.2z"></path>			<path class="st3" d="M364.1,340.5c-0.1,0-0.2,0-0.3,0c-4.3-2.1-8.5-4.5-11.8-7.9c-0.8-0.9-1.6-1.9-2.2-2.9    c-1.4-2.4-1-5.4,0.8-7.4c0.5-0.6,0.6-1,0.5-1.7c-0.3-2.3,1.5-5.7,3.6-6.7c0.1,0,0.2,0,0.5,0c-0.4,0.3-0.6,0.5-0.8,0.7    c-1.5,1.2-2.7,2.7-2.9,4.7c-0.3,2.9,1.3,5.3,4.3,6.2c2.8,0.8,5.6,1.5,8.7,2.4c-0.2-0.8-0.3-1.6-0.6-2.2c-0.5-1.2-1.1-2.2-1.6-3.4    c-0.4-1.1-0.8-2.3-0.8-3.5c-0.1-1.9,1.8-4.1,3.5-4.2c-0.2,0.2-0.4,0.4-0.7,0.5c-2.3,1.5-3,3.5-1.9,6.2c0.4,0.9,0.8,1.8,1.2,2.6    c0.7,1.4,1.2,2.9,1.2,4.6c0,1.7,1,3,2.3,4.1c2.1,1.8,4.5,2.8,7.1,3.6c0.3,0.1,0.7,0.2,0.9,0.5c-2.4-0.4-4.6-1.3-6.6-2.6    c-2.1-1.3-3.9-3-4.1-5.8c-1-0.3-2-0.5-3-0.8c-0.5,4.8,2.1,8.2,6.9,9.2c1.1,0.2,2.2,0.3,3.2,0.4c0.2,0,0.5,0.1,0.9,0.2    c-0.3,0.2-0.4,0.3-0.5,0.3c-2.4-0.2-5-0.3-7-1.7c-2.1-1.4-4.5-2-6.6-3.2c-1.7-1-3.3-2-4.8-3.3c-1.9-1.6-2.4-3.7-2-6.1    c0.1-0.4,0.1-0.8,0.1-1.3c-1.6,1-2.5,3.8-2,5.7c0.6,2.3,2.2,4,3.9,5.5c3,2.7,6.4,4.6,9.9,6.4c0.3,0.1,0.5,0.3,0.8,0.5    C364.2,340.4,364.2,340.5,364.1,340.5z M352.2,323.4c-0.1,0.1-0.1,0.2-0.2,0.2c-0.4,2.3,0.3,4.2,2.1,5.8c2.4,2.1,5.3,3.4,8.1,4.5    c-0.4-1.9-0.9-3.7-1.2-5.5c-0.1-0.8-0.4-1.1-1.2-1.3C357.1,326.3,354.1,326,352.2,323.4z"></path>			<path class="st3" d="M349.6,336c-3.5,2.2-4.7,2.5-2.4,7c-1.2,0.2-2.3,0.5-3.5,0.6c-3.1,0.4-6.2,0.8-9.3,1.1    c-2.3,0.2-4.5-0.3-6.6-1.3c-3.2-1.4-6.2-3.1-8.9-5.4c-0.4-0.4-0.8-0.8-1.1-1.2c-0.9-1.2-0.9-2.1,0.5-2.7c1.3-0.6,2.8-1,4.2-1.3    c4.3-0.8,8.6-0.3,12.9,0.4c4.5,0.8,9.1,1.7,13.6,2.6C349.2,335.8,349.3,335.9,349.6,336z M348.6,336.1c0-0.1,0-0.2,0-0.3    c-6.2-1-12.3-2.1-18.5-3c-3.5-0.5-7.1-0.3-10.6,0.9c-2.5,0.9-2.8,1.9-0.8,3.7c2.9,2.6,6.2,4.4,9.7,5.9c1.7,0.7,3.4,1.1,5.2,1    c3-0.3,6.1-0.6,9.1-0.9c1.3-0.1,2.5-0.4,3.9-0.6C345.1,339.3,345.1,339.2,348.6,336.1z"></path>			<path class="st3" d="M332.2,322.9c0-1.4,1-2.5,2.1-2.5c1.2,0,2.2,1.2,2.1,2.6c0,1.4-1,2.5-2.1,2.5    C333.1,325.5,332.2,324.3,332.2,322.9z"></path>			<path class="st3" d="M262.9,315c-1.3,0-2.3-1-2.3-2.3c0-1.3,1.1-2.3,2.3-2.3c1.3,0,2.3,1.1,2.3,2.3    C265.2,314,264.2,315,262.9,315z"></path>			<path class="st3" d="M269.6,321.5c1.3,0,2.4,0.9,2.4,2c0,1.1-1.1,2.1-2.5,2c-1.3,0-2.4-0.9-2.3-2    C267.2,322.4,268.3,321.5,269.6,321.5z"></path>			<path class="st3" d="M293.3,308.6c0,1.2-1,2.1-2.2,2.1c-1.2,0-2.1-1-2.1-2.2c0-1.2,1-2.1,2.2-2.1    C292.4,306.5,293.3,307.4,293.3,308.6z"></path>			<path class="st3" d="M284.7,323.9c-0.4,0-0.6,0-0.7,0c-1.1-0.1-1.9-0.8-1.9-1.7c0-0.8,0.8-1.5,1.9-1.6c0.6,0,1.3,0,1.8,0.3    c0.5,0.2,1,0.9,1,1.3c0,0.5-0.5,1-1,1.4C285.4,323.8,284.9,323.8,284.7,323.9z"></path>			<path class="st3" d="M192.2,311.4c-0.3-0.3-0.6-0.6-1-0.8c-2.6-2.1-5.1-4.4-7.7-6.3c-4.2-3-9-4.7-13.7-6.6    c-3.2-1.3-6.3-2.4-9.5-3.6c-0.2-0.1-0.4-0.2-0.6-0.4c0.2,0,0.4,0,0.5,0.1c6.2,2.5,12.4,4.8,18.5,7.5c5.3,2.3,9.5,6.1,13.6,10    C192.3,311.2,192.3,311.3,192.2,311.4z"></path>			<path class="st3" d="M305.3,297.1c-11.5,1.5-23.3,0.8-34.8,2.9C282,297.6,293.7,298.3,305.3,297.1z"></path>			<path class="st3" d="M309,321.4c1,0,1.9,0.9,1.9,1.9c0,1-0.8,1.8-1.9,1.8c-1,0-1.8-0.8-1.9-1.8C307.1,322.3,308,321.4,309,321.4z    "></path>			<path class="st3" d="M192.1,333.3c-3.6,3.1-7.5,5.7-11.7,7.8c-6,2.9-12.3,5.2-18.6,7.4C172.4,344.4,183.2,340.7,192.1,333.3z"></path>			<path class="st3" d="M339.7,323.1c-1,0-1.8-0.9-1.8-1.8c0-1,0.8-1.8,1.8-1.8c1,0,1.9,0.8,1.9,1.8    C341.6,322.2,340.7,323.1,339.7,323.1z"></path>			<path class="st3" d="M339.5,315.8c-1,0-1.9-0.8-1.9-1.8c0-1,0.9-1.8,1.9-1.8c1,0,1.8,0.8,1.8,1.8    C341.3,315.1,340.5,315.8,339.5,315.8z"></path>			<path class="st3" d="M161.4,343.8c5.1-1.9,10.3-3.6,15.3-5.9c4.9-2.3,9.5-5.1,14.1-7.6c0.1,0-0.1,0.1-0.3,0.2    c-4.3,2.5-8.4,5.2-12.8,7.3c-4,2-8.4,3.3-12.6,4.9c-1.2,0.5-2.3,0.9-3.5,1.4C161.5,344,161.4,343.9,161.4,343.8z"></path>			<path class="st3" d="M295.8,321.5c0,1-0.8,1.8-1.8,1.8c-1,0-1.8-0.8-1.8-1.8c0-1,0.8-1.9,1.8-1.8    C295,319.7,295.8,320.5,295.8,321.5z"></path>			<path class="st3" d="M191.2,313.2c-1.3-0.8-2.6-1.6-3.9-2.4c-5.7-3.9-12-6.4-18.4-8.7c-2-0.7-4-1.6-6-2.4    c-0.3-0.1-0.5-0.3-0.8-0.5C172.2,303,182.6,306.3,191.2,313.2z"></path>			<path class="st3" d="M346.6,322c-0.2,0.7-0.3,1.5-0.6,2.1c-0.3,0.7-0.9,0.6-1.3,0c-0.7-1-0.7-3.3,0-4.3c0.4-0.6,1-0.6,1.3,0    C346.3,320.5,346.4,321.3,346.6,322z"></path>			<path class="st3" d="M201.2,321.8c0.3,0.1,0.7,0.1,1,0.3c0.4,0.3,0.8,0.8,0.8,1.1c0,0.4-0.4,1.1-0.8,1.2    c-0.6,0.2-1.3,0.2-1.9,0.1c-0.7-0.1-1.2-0.6-1.2-1.3c0-0.8,0.6-1.1,1.3-1.4C200.6,321.9,200.8,321.9,201.2,321.8z"></path>			<path class="st3" d="M231.6,316c0,1.3-0.6,2.2-1.4,2.2c-0.7,0-1.4-1.2-1.3-2.3c0.1-1.2,0.7-2,1.4-2    C231,313.8,231.6,314.8,231.6,316z"></path>			<path class="st3" d="M377.6,325.3c0,1.1-0.7,2-1.4,2c-0.7,0-1.4-1-1.4-2c0-1.2,0.6-2,1.5-2C377,323.3,377.6,324.2,377.6,325.3z"></path>			<path class="st3" d="M268.4,316.9c-0.8,0-1.5-0.9-1.5-1.9c0-1,0.7-1.9,1.5-1.9c0.8,0,1.5,0.9,1.5,1.9    C269.9,316.1,269.2,316.9,268.4,316.9z"></path>			<path class="st3" d="M162.7,332.8c4.5-0.7,8.9-1.3,13.3-2.8c4.3-1.5,8.6-2.9,13.1-4.4C186.9,327.6,166.8,333,162.7,332.8z"></path>			<path class="st3" d="M189.2,314.2c-8.5-3.1-16.6-7.3-25.8-8.3C166.2,305.3,185.4,311.4,189.2,314.2z"></path>			<path class="st3" d="M163.4,337.2c9.1-1.2,17.2-5.5,25.7-8.7C180.7,332,172.7,336.3,163.4,337.2z"></path>			<path class="st3" d="M240.2,340.9c-0.2,0.4-0.3,0.9-0.5,1.2c-1.3,2.6-3.5,4.4-6,5.7c-4.9,2.6-10,5.1-15,7.7c-0.1,0-0.2,0-0.4-0.1    c0.3-0.2,0.6-0.4,0.9-0.5c4.3-2.2,8.6-4.4,12.8-6.5c2.3-1.2,4.5-2.5,6.1-4.6c0.7-0.9,1.2-1.9,1.8-2.9    C240.1,340.9,240.2,340.9,240.2,340.9z"></path>			<path class="st3" d="M388.9,312.8c2.5,0,4.5,1.9,4.5,4.4c0,2.5-2,4.5-4.5,4.5c-2.4,0-4.4-2-4.4-4.4    C384.4,314.8,386.4,312.8,388.9,312.8z M388.9,321.3c2.3,0,4.2-1.9,4.2-4.1c0-2.2-1.9-4.1-4.1-4.1c-2.3,0-4.1,1.9-4.1,4.2    C384.8,319.5,386.7,321.3,388.9,321.3z"></path>			<path class="st3" d="M194.2,332.8c-1.1-2.3-2.3-4.6-3.4-6.9c-2.3-4.6-1.6-8.7,1.7-12.5c0.7-0.9,1.5-1.7,2.2-2.6    c0.1,0.1,0.1,0.1,0.2,0.2c-0.2,0.2-0.3,0.4-0.5,0.6c-1.1,1.5-2.3,3-3.3,4.6c-1.5,2.3-1.9,4.9-0.8,7.5c1.2,2.8,2.5,5.4,3.8,8.2    c0.1,0.3,0.3,0.6,0.5,0.9C194.4,332.7,194.3,332.7,194.2,332.8z"></path>			<path class="st3" d="M298.9,296.2c-1.6-2.1-3.2-4.3-4.9-6.4c-0.3-0.4-0.7-0.8-1-1.3c-1.2-1.7-2.8-2.8-4.8-3.5    c-2.3-0.8-4.5-1.7-6.7-2.6c-0.3-0.1-0.6-0.3-0.8-0.6c0.3,0.1,0.5,0.1,0.8,0.2c2.4,1,4.9,2,7.3,2.9c1.5,0.6,2.8,1.4,3.8,2.7    c2,2.6,4.1,5.3,6.1,7.9c0.1,0.2,0.2,0.4,0.3,0.5C299.1,296.2,299,296.2,298.9,296.2z"></path>			<path class="st3" d="M358.2,315.8c0-1,0.6-1.8,1.4-1.8c0.7,0,1.3,0.8,1.3,1.7c0,1-0.6,1.8-1.4,1.8    C358.8,317.5,358.2,316.7,358.2,315.8z"></path>			<path class="st3" d="M187.8,319c-7.2-1.5-14.6-1.1-21.9-1.8C173.2,317.6,180.6,317.2,187.8,319z"></path>			<path class="st3" d="M187.8,321.6c-7.2,1.8-14.6,1.4-21.9,1.8C173.2,322.7,180.5,323,187.8,321.6z"></path>			<path class="st3" d="M165.1,319.8c7.6,0.2,15.3,0.5,22.9,0.7c0,0.1,0,0.2,0,0.3c-7.6-0.2-15.3-0.5-22.9-0.7    C165.1,320,165.1,319.9,165.1,319.8z"></path>			<path class="st3" d="M188.4,316.8c-7.2-1.5-14.5-3-21.7-4.5C167.8,312,187.3,316,188.4,316.8z"></path>			<path class="st3" d="M266.1,362.3c2.9-2.1,5.9-4.1,8.6-6.4c2.7-2.3,5.1-5,7.6-7.5c-4.4,5.8-10.1,10.1-16,14.1    C266.2,362.4,266.2,362.4,266.1,362.3z"></path>			<path class="st3" d="M188.5,323.8c-7.2,2-14.5,3.5-21.9,4.5C173.9,326.8,181.2,325.3,188.5,323.8z"></path>			<path class="st3" d="M233.9,315.3c0-1,0.6-1.8,1.2-1.8c0.7,0,1.3,0.8,1.3,1.8c0,1-0.6,1.8-1.3,1.8    C234.4,317.1,233.9,316.3,233.9,315.3z"></path>			<path class="st3" d="M314.1,308.7c0,1-0.5,1.7-1.3,1.7c-0.7,0-1.3-0.7-1.3-1.7c0-0.9,0.6-1.6,1.3-1.6    C313.5,307,314.1,307.7,314.1,308.7z"></path>			<path class="st3" d="M236.4,340.2c-4.8,5.2-10.8,8.4-17.3,11C225.4,348.3,231.5,345.2,236.4,340.2z"></path>			<path class="st3" d="M228.8,322.5c0.8,0,1.5,0.7,1.4,1.5c0,0.8-0.7,1.4-1.5,1.4c-0.8,0-1.4-0.7-1.4-1.5    C227.3,323,227.9,322.4,228.8,322.5z"></path>			<path class="st3" d="M330.1,320.7c0,0.8-0.6,1.4-1.5,1.4c-0.8,0-1.5-0.7-1.4-1.5c0-0.8,0.7-1.4,1.5-1.4    C329.5,319.2,330.1,319.9,330.1,320.7z"></path>			<path class="st3" d="M303,307.5c-0.1,0.7-0.7,1.3-1.4,1.3c-0.8,0-1.4-0.7-1.3-1.5c0.1-0.8,0.8-1.4,1.5-1.3    C302.5,306,303,306.7,303,307.5z"></path>			<path class="st3" d="M250.9,321.7c0.8,0,1.4,0.6,1.4,1.4c0,0.8-0.5,1.3-1.3,1.4c-0.8,0-1.4-0.5-1.4-1.3    C249.5,322.3,250.1,321.7,250.9,321.7z"></path>			<path class="st3" d="M263.3,322c-0.8,0-1.4-0.6-1.3-1.4c0-0.7,0.6-1.3,1.4-1.3c0.8,0,1.4,0.6,1.4,1.4    C264.7,321.4,264.2,322,263.3,322z"></path>			<path class="st3" d="M359.6,323.1c-0.8,0-1.4-0.7-1.4-1.4c0-0.8,0.7-1.4,1.5-1.3c0.8,0,1.3,0.6,1.3,1.4    C361,322.5,360.4,323.1,359.6,323.1z"></path>			<path class="st3" d="M248.7,315.8c0,0.2,0,0.5-0.2,0.7c-0.3,0.4-0.7,0.7-1,1c-0.3-0.3-0.7-0.7-0.9-1.1c-0.1-0.2-0.1-0.4-0.1-0.7    c0-1,0.5-1.7,1.1-1.6C248.6,314.3,248.6,315.1,248.7,315.8z"></path>			<path class="st3" d="M319.1,312.4c0,0.7-0.6,1.3-1.3,1.3c-0.8,0-1.4-0.6-1.4-1.3c0-0.7,0.6-1.3,1.4-1.3    C318.5,311.1,319.1,311.7,319.1,312.4z"></path>			<path class="st3" d="M366.4,315.7c0-0.7,0.7-1.3,1.4-1.3c0.7,0.1,1.3,0.7,1.2,1.5c-0.1,0.8-0.6,1.2-1.4,1.2    C366.9,317.1,366.3,316.4,366.4,315.7z"></path>			<path class="st3" d="M292.8,294.2c-0.1-0.1-0.2-0.2-0.3-0.3c-2-4.1-5.5-6.3-9.8-7.7c-1.1-0.4-2.3-0.8-3.4-1.2    C284,284.9,292,290.4,292.8,294.2z"></path>			<path class="st3" d="M243.1,340.1c-5.7-1-10.9-3-15.4-6.7C232.3,336.7,237.5,338.8,243.1,340.1z"></path>			<path class="st3" d="M371,319.8c0,0.9-0.4,1.6-1.1,1.6c-0.6,0-1.1-0.7-1.1-1.5c0-0.9,0.5-1.7,1.1-1.7    C370.6,318.2,371,318.9,371,319.8z"></path>			<path class="st3" d="M256.8,320.3c0.9,0,1.5,0.5,1.5,1.2c0,0.6-0.7,1.2-1.5,1.2c-0.8,0-1.6-0.6-1.5-1.2    C255.2,320.8,255.9,320.3,256.8,320.3z"></path>			<path class="st3" d="M243.6,315.2c0,0.7-0.6,1.3-1.3,1.3c-0.7,0-1.3-0.6-1.3-1.4c0-0.7,0.6-1.3,1.3-1.3    C243,313.8,243.6,314.4,243.6,315.2z"></path>			<path class="st3" d="M285.3,315.3c0,0.7-0.6,1.3-1.3,1.3c-0.8,0-1.3-0.6-1.3-1.3c0-0.8,0.6-1.3,1.4-1.3    C284.7,314,285.3,314.6,285.3,315.3z"></path>			<path class="st3" d="M265.3,358.1c5.1-2.5,10.1-5.2,13.6-9.9C275.6,353.1,270.6,355.8,265.3,358.1z"></path>			<path class="st3" d="M232.1,338.7c-0.4,0.4-0.7,0.9-1.2,1.3c-2.5,1.7-5,3.4-7.5,5c-1.5,1-3,1.8-4.6,2.7    C223.1,344.5,228.1,342.4,232.1,338.7z"></path>			<path class="st3" d="M214.5,317.1c0.9,0,1.6,0.5,1.5,1.1c-0.1,0.9-0.8,1-1.5,1c-0.8,0-1.6-0.5-1.6-1.1    C212.9,317.6,213.6,317.1,214.5,317.1z"></path>			<path class="st3" d="M290.1,296.2c-1.3-1.2-2.5-2.5-3.8-3.6c-1-0.8-2-1.6-3.1-2.1c-2.1-0.9-4.2-1.7-6.3-2.5    c-0.3-0.1-0.6-0.3-0.8-0.6c0.1,0,0.2,0,0.3,0.1c2.6,1,5.2,2,7.7,3.1c0.7,0.3,1.4,0.8,2,1.3C287.4,293.3,288.7,294.8,290.1,296.2    C290,296.2,290.1,296.2,290.1,296.2z"></path>			<path class="st3" d="M380.7,319.8c0.8,0,1.5,0.6,1.4,1.1c-0.1,0.8-0.8,1-1.5,1c-0.8,0-1.4-0.5-1.4-1.1    C379.2,320.3,379.9,319.8,380.7,319.8z"></path>			<path class="st3" d="M303.1,326.8c-0.7-0.1-1.7,0-1.7-0.9c0-0.9,1-0.9,1.8-0.9c0.7,0,1.6,0,1.6,0.9    C304.7,326.7,303.8,326.7,303.1,326.8z"></path>			<path class="st3" d="M308.9,312.6c-0.1,0.7-0.4,1.2-1.2,1.2c-0.8,0-1.2-0.4-1.3-1.1c-0.1-0.7,0.6-1.4,1.2-1.3    C308.3,311.4,308.8,311.8,308.9,312.6z"></path>			<path class="st3" d="M285.9,296.9c-0.4-0.5-0.9-1-1.4-1.4c-0.9-0.7-1.8-1.5-2.9-2.1c-2.4-1.4-4.8-2.6-7.3-3.9    c-0.1-0.1-0.2-0.2-0.3-0.4c0.2,0,0.3,0,0.5,0.1c2.7,1.4,5.3,2.8,8,4.3c1.4,0.8,2.5,2,3.5,3.2C286,296.8,286,296.8,285.9,296.9z"></path>			<path class="st3" d="M275.2,315.8c-0.7,0-1.2-0.6-1.2-1.2c0.1-0.7,0.4-1.2,1.1-1.2c0.7,0,1.1,0.4,1.2,1.1    C276.4,315.2,275.9,315.8,275.2,315.8z"></path>			<path class="st3" d="M301.8,321.3c-0.1,0.7-0.5,1.1-1.2,1.1c-0.7,0-1.1-0.5-1.1-1.2c0-0.7,0.4-1.1,1.2-1.1    C301.4,320.2,301.7,320.6,301.8,321.3z"></path>			<path class="st3" d="M347.3,306.9c0.7,0.1,1.2,0.5,1.2,1.2c0,0.7-0.4,1.1-1.2,1.1c-0.7,0-1.1-0.4-1.1-1.2    C346.2,307.3,346.7,307,347.3,306.9z"></path>			<path class="st3" d="M251.8,315.8c0.3-0.8,0.2-1.7,1-1.7c0.9,0,0.8,1,0.8,1.6c0,0.6,0,1.5-0.8,1.5    C252.4,317.1,252.1,316.3,251.8,315.8z"></path>			<path class="st3" d="M263.6,353.3c4.5-1.1,8.3-3.8,12.4-5.6C272,349.9,268.2,352.5,263.6,353.3z"></path>			<path class="st3" d="M229,337c-3.6,2.3-7.1,4.5-10.7,6.8c-0.1-0.1-0.1-0.2-0.2-0.3c3.6-2.3,7.1-4.5,10.7-6.8    C228.8,336.8,228.9,336.9,229,337z"></path>			<path class="st3" d="M234.2,322.7c-0.1,0-0.3,0-0.4,0c-0.4-0.2-0.8-0.5-1.2-0.8c0.4-0.3,0.8-0.5,1.1-0.8c0.1-0.1,0.3,0,0.4,0    c0.7,0,1.5,0,1.4,0.9c0,0.3-0.8,0.7-1.3,1C234.3,322.9,234.3,322.8,234.2,322.7z"></path>			<path class="st3" d="M272.7,291.4c2.2,0.1,4.2,0.9,5.9,2.3c1.4,1.2,2.7,2.4,4.2,3.7c-0.3-0.1-0.5-0.2-0.7-0.3    c-0.9-0.8-1.9-1.5-2.8-2.3c-1.7-1.7-3.6-2.7-5.9-3.1C273.2,291.6,272.9,291.5,272.7,291.4z"></path>			<path class="st3" d="M283.2,312.1c-0.7,0-1.1-0.4-1.1-1.1c0-0.7,0.4-1.2,1.1-1c0.4,0.1,0.9,0.6,1,1    C284.3,311.6,283.8,312,283.2,312.1z"></path>			<path class="st3" d="M243.3,320.5c0.2,0.3,0.7,0.7,0.8,1.2c0.1,0.7-0.4,1.1-1.1,1.1c-0.6,0-1-0.4-1-1    C241.9,321,242.4,320.7,243.3,320.5z"></path>			<path class="st3" d="M227.2,335c-3.1,1.6-6.3,3.1-9.4,4.7c0-0.1-0.1-0.2-0.1-0.3c3.1-1.6,6.3-3.1,9.4-4.7    C227.1,334.8,227.1,334.9,227.2,335z"></path>			<path class="st3" d="M204,319.1c-0.5-0.5-1.2-0.8-1.2-1.2c-0.1-0.7,0.6-0.9,1.2-0.9c0.6,0,1.2,0.1,1.1,0.8    C205.1,318.3,204.5,318.6,204,319.1z"></path>			<path class="st3" d="M284.5,347.2c-3.4-0.2-6.7-0.5-9.9-0.7C277.9,345.7,281.2,346.9,284.5,347.2z"></path>			<path class="st3" d="M196.6,317.3c1.1-0.7,2.3-0.7,3.4,0C199.3,318,197.6,318.1,196.6,317.3z"></path>			<path class="st3" d="M209.3,323.9c-0.5-0.4-0.9-0.8-1.2-1.1c0.4-0.2,0.9-0.6,1.3-0.6c0.4,0,0.8,0.4,1.2,0.7    C210.2,323.1,209.8,323.4,209.3,323.9z"></path>			<path class="st3" d="M292.8,314.8c-0.5-0.5-0.9-0.8-1.3-1.1c0.4-0.3,0.8-0.7,1.1-0.7c0.4,0,0.8,0.4,1.2,0.7    C293.6,313.9,293.3,314.3,292.8,314.8z"></path>			<path class="st3" d="M375.6,319c0.4-0.2,0.7-0.6,1.1-0.7c0.6-0.1,1,0.4,0.9,1c-0.1,0.4-0.6,0.8-0.9,0.8c-0.3,0-0.7-0.5-1.1-0.7    C375.6,319.3,375.6,319.1,375.6,319z"></path>			<path class="st3" d="M222.2,319.1c-0.5-0.4-1.1-0.7-1.1-1.1c-0.1-0.7,0.5-0.9,1-0.8c0.4,0.1,0.8,0.5,1.2,0.7    C222.9,318.3,222.6,318.6,222.2,319.1z"></path>			<path class="st3" d="M333.2,312.2c-0.4,0.2-0.7,0.7-1.1,0.6c-0.3,0-0.8-0.5-0.9-0.8c-0.1-0.6,0.3-1,0.9-0.9    c0.4,0.1,0.7,0.4,1.1,0.7C333.2,311.9,333.2,312.1,333.2,312.2z"></path>			<path class="st3" d="M207.7,318.3c-0.2-0.3-0.7-0.7-0.7-1c0-0.3,0.5-0.9,0.8-0.9c0.3,0,0.8,0.5,0.9,0.8c0,0.3-0.4,0.7-0.6,1.1    C207.9,318.3,207.8,318.3,207.7,318.3z"></path>			<path class="st3" d="M312.9,319.2c0.7,0.7,0.7,1.5,0.4,2.3c-0.1,0.4-0.4,0.7-0.8,0.2C312,321.1,312.2,319.8,312.9,319.2z"></path>			<path class="st3" d="M272.3,292.7c2.6,1.2,4.9,2.7,6.4,5.3C277,295.6,274.7,294.1,272.3,292.7z"></path>			<path class="st3" d="M318.3,322.4c-0.5-0.6-0.9-0.9-0.9-1.3c-0.1-0.6,0.3-1,0.9-0.9c0.4,0.1,0.8,0.5,0.9,0.9    C319.2,321.4,318.7,321.8,318.3,322.4z"></path>			<path class="st3" d="M275.3,298c-2.4-0.8-4.4-2.1-5.9-4.1c0.9,0.8,1.8,1.6,2.8,2.3C273.2,296.9,274.3,297.4,275.3,298z"></path>			<path class="st3" d="M368.3,322.6c0.4,0.4,0.7,0.7,1,1c-0.4,0.2-0.8,0.6-1.1,0.6c-0.3,0-0.7-0.4-1-0.6    C367.5,323.3,367.8,323,368.3,322.6z"></path>			<path class="st3" d="M355.6,317c0.4,0.6,0.7,1,0.7,1.3c0,0.3-0.5,0.5-0.8,0.8c-0.3-0.3-0.7-0.6-0.7-0.9    C354.7,317.9,355.1,317.5,355.6,317z"></path>			<path class="st3" d="M325.6,309.7c0.3,0.6,0.7,0.9,0.7,1.2c0,0.3-0.5,0.7-0.7,0.7c-0.3-0.1-0.7-0.4-0.8-0.7    C324.7,310.6,325.2,310.3,325.6,309.7z"></path>			<path class="st3" d="M380,314.6c0.6,0.6,0.8,1.6,0.3,2c-0.1,0.1-0.5,0.1-0.6,0C379.3,316.1,379.4,315.3,380,314.6z"></path>			<path class="st3" d="M219.2,308.5c1.6-0.3,3.2-0.6,4.9-0.9c0,0.1,0,0.2,0.1,0.3c-1.6,0.3-3.2,0.6-4.9,0.9    C219.2,308.7,219.2,308.6,219.2,308.5z"></path>			<path class="st3" d="M266.8,295.8c1.4,0.9,2.8,1.7,4.3,2.6c-0.1,0.1-0.1,0.2-0.2,0.3c-1.4-0.9-2.8-1.7-4.3-2.6    C266.7,296,266.7,295.9,266.8,295.8z"></path>			<path class="st3" d="M220.7,324.6c-0.3-0.4-0.7-0.7-0.7-0.9c0.1-0.3,0.4-0.5,0.7-0.7c0.2,0.2,0.6,0.4,0.6,0.7    C221.4,323.9,221,324.1,220.7,324.6z"></path>			<path class="st3" d="M325,322.2c0.3,0.4,0.5,0.6,0.5,0.8c0,0.2-0.3,0.4-0.5,0.5c-0.1,0-0.4-0.3-0.4-0.5    C324.5,322.8,324.7,322.6,325,322.2z"></path>			<path class="st3" d="M319.5,334.8c8.6-0.1,17.2-1.2,25.5,1.7C336.6,333.9,328,335,319.5,334.8z"></path>			<path class="st3" d="M320,336.3c8.1,0.5,16.1,1,24,1.5C343.3,338.3,321.9,337,320,336.3z"></path>			<path class="st3" d="M322.5,337.9c1,0.2,2.1,0.3,3.1,0.5c2.9,0.5,5.8,1.4,8.7,1.6c2.9,0.3,5.9,0,8.9,0c0.1,0,0.3,0,0.4,0    c0,0.1,0,0.2,0,0.2c-0.5,0.1-1,0.2-1.6,0.2c-4,0.5-7.8,0.2-11.7-0.8c-2.4-0.6-4.8-0.9-7.3-1.3c-0.2,0-0.5-0.1-0.7-0.2    C322.5,338.1,322.5,338,322.5,337.9z"></path>			<path class="st3" d="M326.7,340.2c5.3,2.3,10.8,2.9,16.5,1.4C337.5,343.5,332,342.8,326.7,340.2z"></path>			<path class="st3" d="M386.8,317.2c0.7,0,1.3,0,2,0c0-0.7,0-1.4,0-2c1.2-0.1,2.1,0.6,2.2,1.8c0.1,1.2-0.7,2.3-1.9,2.4    C388,319.5,386.7,318.6,386.8,317.2z"></path>		</g>	</g></g></svg>